<svg id="Lag_1" data-name="Lag 1" xmlns="http://www.w3.org/2000/svg" viewBox="0 0 171.5 242.39"><defs><style>.cls-1{fill:#26424f;}.cls-2{fill:#c8443c;}</style></defs><path class="cls-1" d="M83.56,22.73c10,0,35.43,4.36,35.43,34,0,8.52-3.83,34-43.88,34H53.85V50.87L24.09,44.24V175.81L0,181.48v17H78V181.38l-24.09-5.67V111.93h8.7c29.85,0,36.42,21.16,43.43,36.43l23,50H171.5v-17l-20.19-4.5c-1.52.92-30.42-67.86-39.4-70.58,20.16-6.13,36.84-25.29,36.84-49.54C148.75,11.28,106.56,0,85,0h-85V10.7l53.91,12Z"/><rect class="cls-2" x="-0.06" y="235.07" width="171.56" height="7.32"/></svg>