<svg id="Lag_1" data-name="Lag 1" xmlns="http://www.w3.org/2000/svg" viewBox="0 0 628.42 91.06"><defs><style>.cls-1{fill:#26424f;}.cls-2{fill:#c8443c;}</style></defs><path id="Path_23" data-name="Path 23" class="cls-1" d="M94.1,7H80.69V20.45H95v5H80.69V40.72H95l1.25-6.24h4V45.71H68.83V42l5.31-1.25V7L68.83,5.79V2.36L80.68,2h19V12.65H95.65Z"/><path id="Path_24" data-name="Path 24" class="cls-1" d="M142.54,32.92l1.25,6.55a11.82,11.82,0,0,0,3.05,1.09,15.84,15.84,0,0,0,3.81.47,13.42,13.42,0,0,0,3.62-.47,10,10,0,0,0,3-1.34,7.09,7.09,0,0,0,2.1-2.09,5.11,5.11,0,0,0,.78-2.77,4.67,4.67,0,0,0-1-3,9.27,9.27,0,0,0-2.59-2.12A20.83,20.83,0,0,0,153,27.63q-2-.69-4.05-1.44-2.19-.93-4.21-1.9a15.28,15.28,0,0,1-3.62-2.37,10.22,10.22,0,0,1-2.53-3.4,13,13,0,0,1,.28-10.35,11.23,11.23,0,0,1,3.24-3.81,14,14,0,0,1,4.74-2.21,22.51,22.51,0,0,1,5.71-.72,26,26,0,0,1,2.93.19c1,.12,2.06.28,3.06.47s1.93.39,2.8.62l2.25.59,2,.63-.32,10.6h-4.05l-2.12-6.67a20.69,20.69,0,0,0-3.46-.81,23.19,23.19,0,0,0-3.53-.25,10.68,10.68,0,0,0-3.27.46,8.11,8.11,0,0,0-2.5,1.28,6.4,6.4,0,0,0-1.59,1.81,4.27,4.27,0,0,0-.56,2.06A5.42,5.42,0,0,0,146,16.53a15.06,15.06,0,0,0,4.18,2.56c1.66.7,3.46,1.37,5.39,2a29.11,29.11,0,0,1,5.37,2.34A13.08,13.08,0,0,1,165,27.07a9.71,9.71,0,0,1,1.66,5.87,12.61,12.61,0,0,1-1.25,5.73A12.34,12.34,0,0,1,162,42.89a15.83,15.83,0,0,1-5.18,2.62,22.18,22.18,0,0,1-6.42.9,26.91,26.91,0,0,1-3-.19c-1.06-.12-2.1-.28-3.12-.46s-2-.4-2.83-.63-1.61-.44-2.19-.65l-1.74-.63V32.94Z"/><path id="Path_25" data-name="Path 25" class="cls-1" d="M265.07,24.38a29.85,29.85,0,0,1,1.41-9.48,20.58,20.58,0,0,1,4.08-7.27A17.88,17.88,0,0,1,277,3,22.41,22.41,0,0,1,293.39,3a16.82,16.82,0,0,1,6.15,4.39,19.26,19.26,0,0,1,3.83,6.93,29.56,29.56,0,0,1,1.31,9.1,27.53,27.53,0,0,1-1.49,9.27A21.63,21.63,0,0,1,299,39.89a19.18,19.18,0,0,1-6.51,4.73A20.22,20.22,0,0,1,284,46.34,17.57,17.57,0,0,1,270,40.66Q265.06,35,265.07,24.38ZM285,6.73q-12.78,0-12.79,17.15T284.41,41a11.59,11.59,0,0,0,9.68-4.36q3.42-4.37,3.43-13.1Q297.51,6.73,285,6.73Z"/><path id="Path_26" data-name="Path 26" class="cls-1" d="M366.8,45.71,346.22,11.34V40.72L352.14,42v3.75H335.3V42l5.31-1.25V7L335.3,5.79V2.36L348.4,2,369,36.91V7l-5.3-1.25V2.36L379.9,2V5.8L374.6,7V45.72Z"/><path id="Path_27" data-name="Path 27" class="cls-1" d="M418,32.92l1.25,6.55a11.82,11.82,0,0,0,3.05,1.09,15.84,15.84,0,0,0,3.81.47,13.42,13.42,0,0,0,3.62-.47,10,10,0,0,0,3.05-1.34,6.94,6.94,0,0,0,2.09-2.09,5,5,0,0,0,.79-2.77,4.56,4.56,0,0,0-1-3,9.09,9.09,0,0,0-2.58-2.12,20.83,20.83,0,0,0-3.59-1.58c-1.33-.46-2.68-.94-4.06-1.44s-2.86-1.25-4.21-1.9a15.43,15.43,0,0,1-3.61-2.37,10.22,10.22,0,0,1-2.53-3.4,13,13,0,0,1,.28-10.35,11.23,11.23,0,0,1,3.24-3.81,14,14,0,0,1,4.74-2.21,22.4,22.4,0,0,1,5.71-.72,26,26,0,0,1,2.93.19c1,.12,2.06.28,3.06.47s1.93.39,2.81.62l2.24.59,2,.63-.32,10.6h-4.05l-2.12-6.67a20.69,20.69,0,0,0-3.46-.81,23.19,23.19,0,0,0-3.53-.25,10.64,10.64,0,0,0-3.27.46,8.11,8.11,0,0,0-2.5,1.28,6.4,6.4,0,0,0-1.59,1.81,4.27,4.27,0,0,0-.56,2.06,5.42,5.42,0,0,0,1.75,4.12,15.06,15.06,0,0,0,4.18,2.56c1.66.7,3.46,1.37,5.39,2a29.11,29.11,0,0,1,5.37,2.34,13.08,13.08,0,0,1,4.11,3.65,9.71,9.71,0,0,1,1.66,5.87,12.61,12.61,0,0,1-1.25,5.73,12.22,12.22,0,0,1-3.43,4.22,15.73,15.73,0,0,1-5.18,2.62,22.13,22.13,0,0,1-6.42.9,26.58,26.58,0,0,1-3-.19c-1.07-.12-2.11-.28-3.12-.46s-2-.4-2.84-.63-1.61-.44-2.18-.65l-1.74-.63V32.94Z"/><path id="Path_28" data-name="Path 28" class="cls-1" d="M494.73,42v3.75H477.57V42l5.3-1.25V7l-5.3-1.25V2.36L494.73,2V5.8L489.42,7V40.72Z"/><path id="Path_29" data-name="Path 29" class="cls-1" d="M544.73,45.71,531.44,7l-4.8-1.25V2.36L544.11,2V5.8L538.43,7l9.79,30.31L558.64,7l-5.8-1.25V2.36l16.84-.31V5.8l-4.86,1.25L551,45.72Z"/><path id="Path_30" data-name="Path 30" class="cls-1" d="M622.18,7H608.77V20.45h14.35v5H608.77V40.72h14.35l1.24-6.24h4.06V45.71h-31.5V42l5.3-1.25V7l-5.3-1.25V2.36L608.76,2h19V12.65h-4.06Z"/><path class="cls-1" d="M18.27,7.32c2.19,0,7.74,1,7.74,7.44,0,1.86-.84,7.43-9.59,7.43H11.78V13.47L5.28,12V40.77L0,42v3.71H17V42l-5.26-1.24V26.81h1.9c6.52,0,8,4.62,9.49,8l5,10.93h9.29V42l-4.41-1c-.33.2-6.65-14.82-8.61-15.42a11.37,11.37,0,0,0,8-10.82c0-9.94-9.22-12.4-13.93-12.4H0V4.7L11.78,7.32Z"/><path class="cls-1" d="M218,29.49a20.62,20.62,0,0,0,12.44-3.74,14.43,14.43,0,0,0,4.4-10.92,12.19,12.19,0,0,0-3.7-9.35,16.11,16.11,0,0,0-10.63-3.43l-18.4,0V5.79l2.86.67.19,0,2.25.53V18.24h0V40.72L202.09,42v3.75h17.16V42l-5.31-1.25V29.49Zm8.19-20a9.26,9.26,0,0,1,2.12,6.3q0,8.73-10.29,8.73h-4.06V7h6.24A7.68,7.68,0,0,1,226.17,9.47Z"/><rect class="cls-2" x="132.66" y="89.09" width="363.1" height="1.97"/></svg>