<svg id="Lag_1" data-name="Lag 1" xmlns="http://www.w3.org/2000/svg" viewBox="0 0 630.54 90.53"><defs><style>.cls-1{fill:#345362;}.cls-2{fill:#c8443c;}</style></defs><path id="Path_23" data-name="Path 23" class="cls-1" d="M94.42,6.22H81V19.68H95.35v5H81V40H95.35l1.25-6.26h4.07V45H69.07V41.26L74.39,40V6.22L69.07,5V1.53L81,1.21H100V11.85H96Z"/><path id="Path_24" data-name="Path 24" class="cls-1" d="M143,32.2l1.25,6.57a12.34,12.34,0,0,0,3.07,1.09,16.38,16.38,0,0,0,3.82.48,13.92,13.92,0,0,0,3.63-.48,10.08,10.08,0,0,0,3.06-1.34,7.13,7.13,0,0,0,2.1-2.1,5.07,5.07,0,0,0,.79-2.78,4.65,4.65,0,0,0-1-3,9.2,9.2,0,0,0-2.59-2.13,20.92,20.92,0,0,0-3.6-1.58c-1.34-.46-2.69-.94-4.07-1.44s-2.87-1.27-4.23-1.91a15.8,15.8,0,0,1-3.63-2.38,10.37,10.37,0,0,1-2.53-3.41,13.08,13.08,0,0,1,.28-10.39,11.09,11.09,0,0,1,3.25-3.82,13.83,13.83,0,0,1,4.76-2.22A22.12,22.12,0,0,1,153.1.6,26.38,26.38,0,0,1,156,.79c1,.12,2.06.28,3.06.47s1.94.4,2.82.62l2.25.6,2,.62-.31,10.64h-4.07l-2.12-6.69a22,22,0,0,0-3.48-.82A24.55,24.55,0,0,0,152.66,6a11.09,11.09,0,0,0-3.29.47,7.93,7.93,0,0,0-2.5,1.29,6.16,6.16,0,0,0-1.6,1.81,4.17,4.17,0,0,0-.56,2.07,5.44,5.44,0,0,0,1.75,4.13,15.17,15.17,0,0,0,4.19,2.56q2.5,1.07,5.42,2a28.54,28.54,0,0,1,5.38,2.34,13.21,13.21,0,0,1,4.13,3.67,9.67,9.67,0,0,1,1.66,5.88A12.76,12.76,0,0,1,166,38a12.28,12.28,0,0,1-3.45,4.22,15.43,15.43,0,0,1-5.19,2.63,22,22,0,0,1-6.45.91,26.91,26.91,0,0,1-3-.19c-1.06-.12-2.11-.28-3.13-.47s-2-.39-2.85-.62-1.6-.45-2.19-.66L138,43.17v-11Z"/><path id="Path_25" data-name="Path 25" class="cls-1" d="M266,23.62a30.11,30.11,0,0,1,1.4-9.51,20.8,20.8,0,0,1,4.1-7.29,18,18,0,0,1,6.42-4.63,22.57,22.57,0,0,1,16.49-.06,16.83,16.83,0,0,1,6.17,4.41,19.55,19.55,0,0,1,3.85,7,29.77,29.77,0,0,1,1.31,9.14,27.45,27.45,0,0,1-1.5,9.29A21.55,21.55,0,0,1,300,39.18a19.38,19.38,0,0,1-6.54,4.76A20.29,20.29,0,0,1,285,45.66,17.63,17.63,0,0,1,270.88,40Q266,34.26,266,23.62ZM286,5.91q-12.83,0-12.83,17.21t12.21,17.22A11.64,11.64,0,0,0,295.08,36q3.44-4.38,3.44-13.14Q298.51,5.9,286,5.91Z"/><path id="Path_26" data-name="Path 26" class="cls-1" d="M368,45,347.39,10.54V40l5.94,1.25V45h-16.9V41.27L341.75,40V6.22L336.43,5V1.53l13.15-.32,20.65,35v-30L364.91,5V1.53l16.27-.32V5l-5.32,1.25V45Z"/><path id="Path_27" data-name="Path 27" class="cls-1" d="M419.44,32.2l1.25,6.57a12.34,12.34,0,0,0,3.07,1.09,16.38,16.38,0,0,0,3.82.48,14,14,0,0,0,3.63-.48,10.08,10.08,0,0,0,3.06-1.34,7.13,7.13,0,0,0,2.1-2.1,5,5,0,0,0,.79-2.78,4.64,4.64,0,0,0-1-3,9.38,9.38,0,0,0-2.6-2.13,20.59,20.59,0,0,0-3.6-1.58c-1.33-.46-2.69-.94-4.06-1.44s-2.87-1.27-4.23-1.91A15.58,15.58,0,0,1,418,21.16a10.54,10.54,0,0,1-2.54-3.41,13.08,13.08,0,0,1,.29-10.39A11.09,11.09,0,0,1,419,3.54a14,14,0,0,1,4.75-2.22A22.17,22.17,0,0,1,429.52.6a26.22,26.22,0,0,1,2.94.19c1.05.12,2.07.28,3.07.47s1.94.4,2.82.62l2.25.6,2,.62-.31,10.64h-4.07L436.1,7.05a22,22,0,0,0-3.48-.82A24.55,24.55,0,0,0,429.09,6a11,11,0,0,0-3.29.47,7.93,7.93,0,0,0-2.5,1.29,6.16,6.16,0,0,0-1.6,1.81,4.17,4.17,0,0,0-.56,2.07,5.44,5.44,0,0,0,1.75,4.13,15.26,15.26,0,0,0,4.19,2.56c1.67.71,3.47,1.38,5.42,2a28.54,28.54,0,0,1,5.38,2.34A13.21,13.21,0,0,1,442,26.33a9.74,9.74,0,0,1,1.66,5.88A12.76,12.76,0,0,1,442.42,38,12.28,12.28,0,0,1,439,42.19a15.43,15.43,0,0,1-5.19,2.63,22,22,0,0,1-6.45.91,26.91,26.91,0,0,1-3-.19c-1.06-.12-2.11-.28-3.13-.47s-2-.39-2.85-.62-1.61-.45-2.18-.66l-1.75-.62v-11Z"/><path id="Path_28" data-name="Path 28" class="cls-1" d="M496.39,41.27V45H479.18V41.27L484.5,40V6.22L479.18,5V1.53l17.21-.32V5l-5.32,1.25V40Z"/><path id="Path_29" data-name="Path 29" class="cls-1" d="M546.57,45,533.23,6.22,528.42,5V1.53l17.52-.32V5l-5.69,1.19,9.82,30.41L560.52,6.23,554.7,5V1.53l16.9-.31V5l-4.88,1.26L552.82,45Z"/><path id="Path_30" data-name="Path 30" class="cls-1" d="M624.28,6.22H610.82V19.68h14.4v5h-14.4V40h14.4l1.25-6.26h4.07V45H598.93V41.26L604.25,40V6.22L598.93,5V1.53l11.89-.32h19.09V11.85h-4.07Z"/><path class="cls-1" d="M18.33,6.51c2.19,0,7.77,1,7.77,7.46,0,1.87-.84,7.46-9.62,7.46H11.82V12.68L5.29,11.23V40.07L0,41.31V45H17.1V41.29L11.82,40v-14h1.91c6.54,0,8,4.64,9.52,8,1.27,2.78,5,11,5,11H37.6V41.29l-4.42-1c-.33.2-6.67-14.87-8.64-15.47A11.42,11.42,0,0,0,32.62,14c0-10-9.25-12.44-14-12.44H0V3.88L11.82,6.51Z"/><path class="cls-1" d="M218.72,28.75A20.68,20.68,0,0,0,231.2,25a14.47,14.47,0,0,0,4.41-10.95,12.24,12.24,0,0,0-3.71-9.39,16.17,16.17,0,0,0-10.67-3.44l-18.46,0V5l2.88.68.19,0,2.25.53V17.47h0V40l-5.32,1.25V45H220V41.27L214.66,40V28.75Zm8.21-20.08A9.26,9.26,0,0,1,229.06,15q0,8.76-10.33,8.76h-4.07V6.23h6.26A7.68,7.68,0,0,1,226.93,8.67Z"/><rect class="cls-2" x="266.21" y="88.55" width="364.33" height="1.98"/></svg>