<svg id="Lag_1" data-name="Lag 1" xmlns="http://www.w3.org/2000/svg" viewBox="0 0 611.08 87.41"><defs><style>.cls-1{fill:#26424f;}.cls-2{fill:#c8443c;}</style></defs><path id="Path_23" data-name="Path 23" class="cls-1" d="M95.8,7.42H83V20.19H96.69v4.75H83V39.49H96.69l1.18-5.94h3.86V44.24h-30V40.67l5-1.19V7.42l-5-1.18V3L83,2.67h18.11v10.1H97.28Z"/><path id="Path_24" data-name="Path 24" class="cls-1" d="M141.91,32.07l1.19,6.23a12,12,0,0,0,2.91,1,15.74,15.74,0,0,0,3.62.45,13.45,13.45,0,0,0,3.45-.45A9.57,9.57,0,0,0,156,38.06a6.74,6.74,0,0,0,2-2,4.81,4.81,0,0,0,.74-2.64,4.42,4.42,0,0,0-.95-2.88,8.76,8.76,0,0,0-2.47-2,20.29,20.29,0,0,0-3.41-1.5c-1.27-.44-2.55-.89-3.86-1.37s-2.72-1.2-4-1.81a14.62,14.62,0,0,1-3.44-2.26,9.81,9.81,0,0,1-2.41-3.23,12.43,12.43,0,0,1,.27-9.86,10.47,10.47,0,0,1,3.09-3.62A13.13,13.13,0,0,1,146,2.77a21.16,21.16,0,0,1,5.43-.68,21.78,21.78,0,0,1,2.79.18c1,.12,2,.27,2.91.44s1.84.38,2.67.6l2.14.56,1.9.59-.3,10.1h-3.86l-2-6.35a20.45,20.45,0,0,0-3.29-.78,22.15,22.15,0,0,0-3.36-.23,10,10,0,0,0-3.11.44,7.57,7.57,0,0,0-2.38,1.22,5.79,5.79,0,0,0-1.51,1.72,4,4,0,0,0-.54,2,5.15,5.15,0,0,0,1.66,3.92,14.52,14.52,0,0,0,4,2.43q2.39,1,5.14,1.9A28.26,28.26,0,0,1,159.4,23a12.41,12.41,0,0,1,3.91,3.48,9.16,9.16,0,0,1,1.58,5.58,12,12,0,0,1-1.19,5.46,11.57,11.57,0,0,1-3.27,4A14.71,14.71,0,0,1,155.5,44a21,21,0,0,1-6.11.87,26.69,26.69,0,0,1-2.82-.18q-1.51-.18-3-.45c-1-.17-1.87-.37-2.7-.59s-1.53-.43-2.08-.62l-1.66-.6V32.08Z"/><path id="Path_25" data-name="Path 25" class="cls-1" d="M258.55,23.93a29,29,0,0,1,1.34-9A19.51,19.51,0,0,1,263.78,8a17,17,0,0,1,6.09-4.39,21.33,21.33,0,0,1,15.64-.06,15.75,15.75,0,0,1,5.85,4.19A18.5,18.5,0,0,1,295,14.32,28.25,28.25,0,0,1,296.26,23a26.21,26.21,0,0,1-1.42,8.82,20.53,20.53,0,0,1-4,6.88,18.28,18.28,0,0,1-6.21,4.52,19.37,19.37,0,0,1-8,1.63,16.72,16.72,0,0,1-13.39-5.4Q258.56,34,258.55,23.93Zm19-16.8q-12.18,0-12.18,16.33T277,39.79a11,11,0,0,0,9.21-4.16q3.27-4.16,3.27-12.47Q289.43,7.13,277.56,7.13Z"/><path id="Path_26" data-name="Path 26" class="cls-1" d="M355.4,44.24,335.8,11.52v28l5.64,1.19v3.57h-16V40.68l5-1.19V7.42l-5-1.18V3l12.47-.3,19.6,33.2V7.42l-5.05-1.18V3l15.44-.3V6.24l-5.05,1.19V44.25Z"/><path id="Path_27" data-name="Path 27" class="cls-1" d="M404.16,32.07l1.19,6.23a12,12,0,0,0,2.91,1,15.74,15.74,0,0,0,3.62.45,13.31,13.31,0,0,0,3.44-.45,9.52,9.52,0,0,0,2.92-1.28,6.59,6.59,0,0,0,2-2,4.73,4.73,0,0,0,.76-2.64,4.48,4.48,0,0,0-1-2.88,8.76,8.76,0,0,0-2.47-2,20.29,20.29,0,0,0-3.41-1.5c-1.27-.44-2.56-.89-3.86-1.37s-2.73-1.2-4-1.81a14.89,14.89,0,0,1-3.45-2.26,9.92,9.92,0,0,1-2.4-3.23,12.39,12.39,0,0,1,.27-9.86,10.54,10.54,0,0,1,3.08-3.62,13.31,13.31,0,0,1,4.51-2.11,21.23,21.23,0,0,1,5.44-.68,21.78,21.78,0,0,1,2.79.18c1,.12,2,.27,2.91.44s1.84.38,2.67.6l2.14.56,1.9.59-.3,10.1H422l-2-6.35a20.7,20.7,0,0,0-3.29-.78,22.23,22.23,0,0,0-3.36-.23,10,10,0,0,0-3.11.44,7.36,7.36,0,0,0-2.38,1.22,5.79,5.79,0,0,0-1.51,1.72,4,4,0,0,0-.54,2,5.15,5.15,0,0,0,1.66,3.92,14.52,14.52,0,0,0,4,2.43q2.38,1,5.14,1.9A28.26,28.26,0,0,1,421.66,23a12.41,12.41,0,0,1,3.91,3.48,9.16,9.16,0,0,1,1.58,5.58A12,12,0,0,1,426,37.54a11.46,11.46,0,0,1-3.27,4A14.75,14.75,0,0,1,417.77,44a21.16,21.16,0,0,1-6.12.87,26.69,26.69,0,0,1-2.82-.18q-1.51-.18-3-.45c-1-.18-1.87-.37-2.7-.59s-1.53-.43-2.07-.62l-1.66-.6V32.08Z"/><path id="Path_28" data-name="Path 28" class="cls-1" d="M477.17,40.68v3.57H460.84V40.68l5.05-1.19V7.42l-5.05-1.18V3l16.33-.3V6.24l-5.05,1.19V39.49Z"/><path id="Path_29" data-name="Path 29" class="cls-1" d="M524.77,44.24,512.12,7.42l-4.57-1.18V3l16.63-.3V6.24l-5.41,1.13,9.33,28.86L538,7.43l-5.52-1.19V3l16-.3V6.25l-4.63,1.19L530.71,44.25Z"/><path id="Path_30" data-name="Path 30" class="cls-1" d="M598.5,7.42H585.73V20.19h13.66v4.75H585.73V39.49h13.66l1.19-5.94h3.86V44.24h-30V40.67l5-1.19V7.42l-5-1.18V3l11.28-.3h18.11v10.1H600Z"/><path class="cls-1" d="M23.61,7.7c2.08,0,7.37.91,7.37,7.07,0,1.78-.8,7.08-9.13,7.08H17.43v-8.3l-6.19-1.38V39.53l-5,1.18v3.54H22.45V40.69l-5-1.18V26.25h1.81c6.2,0,7.57,4.4,9,7.57l4.78,10.41H41.9V40.69l-4.2-.93c-.32.19-6.33-14.12-8.19-14.68a10.84,10.84,0,0,0,7.66-10.31C37.17,5.32,28.39,3,23.91,3H6.22V5.2L17.43,7.7Z"/><path class="cls-1" d="M213.73,28.8a19.63,19.63,0,0,0,11.84-3.56,13.75,13.75,0,0,0,4.19-10.39,11.62,11.62,0,0,0-3.52-8.91,15.39,15.39,0,0,0-10.13-3.27l-17.51,0v3.6l2.73.64.18,0,2.14.5V18.09h0V39.49l-5.05,1.19v3.57h16.33V40.68l-5.05-1.19V28.8Zm7.79-19.06a8.85,8.85,0,0,1,2,6q0,8.31-9.8,8.31h-3.86V7.43h5.94A7.29,7.29,0,0,1,221.52,9.74Z"/><rect class="cls-2" x="6.22" y="85.53" width="345.65" height="1.88"/></svg>