<svg id="Layer_1" data-name="Layer 1" xmlns="http://www.w3.org/2000/svg" viewBox="0 0 475.41 439.85"><defs><style>.cls-1{fill:#c8423c;}.cls-2{fill:#373839;}.cls-3{fill:#26424f;}.cls-4{fill:#2f5160;}.cls-5{fill:#3d6274;}.cls-6{fill:#467186;}.cls-7{fill:#53839b;}.cls-8{fill:#5a8ca5;}.cls-9{fill:#2b4546;}.cls-10{fill:#375759;}.cls-11{fill:#3f6669;}.cls-12{fill:#4b7274;}.cls-13{fill:#668989;}.cls-14{fill:#edf0f2;}.cls-15{fill:#d9ddde;}.cls-16{fill:#e5e9ea;}.cls-17{fill:#c7cacb;}.cls-18{fill:#b7babb;}</style></defs><rect id="Image_1" data-name="Image 1" class="cls-1" x="0.16" y="433.73" width="475.17" height="6.12"/><rect id="Image_1-2" data-name="Image 1-2" class="cls-2" y="394.7" width="475.35" height="39.01"/><rect id="Rectangle_310" data-name="Rectangle 310" class="cls-3" x="0.45" width="65.42" height="65.42"/><path id="Path_1336" data-name="Path 1336" class="cls-4" d="M.16,65.83H65.94V131.6H.16Z"/><rect id="Rectangle_312" data-name="Rectangle 312" class="cls-5" x="0.45" y="130.84" width="65.42" height="66.63"/><rect id="Rectangle_313" data-name="Rectangle 313" class="cls-6" x="0.45" y="197.47" width="65.42" height="65.42"/><path id="Path_1674" data-name="Path 1674" class="cls-7" d="M.16,263.15H65.94v65.78H.16Z"/><path id="Path_1337" data-name="Path 1337" class="cls-8" d="M.16,328.93H65.94V394.7H.16Z"/><path id="Path_1338" data-name="Path 1338" class="cls-9" d="M65.94.05h65.77V394.7H65.94Z"/><rect id="Rectangle_316" data-name="Rectangle 316" class="cls-10" x="131.29" width="65.42" height="394.94"/><rect id="Rectangle_317" data-name="Rectangle 317" class="cls-11" x="196.71" width="66.63" height="394.94"/><rect id="Rectangle_318" data-name="Rectangle 318" class="cls-12" x="263.34" width="65.42" height="394.94"/><rect id="Rectangle_319" data-name="Rectangle 319" class="cls-13" x="328.89" y="0.21" width="65.78" height="394.49"/><rect id="Rectangle_320" data-name="Rectangle 320" class="cls-14" x="394.66" y="315.93" width="80.68" height="78.77"/><path id="Path_1339" data-name="Path 1339" class="cls-15" d="M475.35,236.9H394.66V158.12h80.69Z"/><rect id="Rectangle_322" data-name="Rectangle 322" class="cls-16" x="394.66" y="237.16" width="80.68" height="78.77"/><rect id="Rectangle_323" data-name="Rectangle 323" class="cls-17" x="394.66" y="79.09" width="80.68" height="78.77"/><rect id="Rectangle_324" data-name="Rectangle 324" class="cls-18" x="394.66" y="0.05" width="80.68" height="78.77"/></svg>