<svg id="Lag_1" data-name="Lag 1" xmlns="http://www.w3.org/2000/svg" viewBox="0 0 565.27 80.62"><defs><style>.cls-1{fill:#f0f4f7;}.cls-2{fill:#678989;}</style></defs><path id="Path_23" data-name="Path 23" class="cls-1" d="M84.64,5H72.58V17.11h12.9v4.48H72.58V35.34h12.9l1.12-5.61h3.65v10.1H61.92V36.46l4.77-1.13V5L61.92,3.92V.84L72.57.55H89.69v9.54H86Z"/><path id="Path_24" data-name="Path 24" class="cls-1" d="M128.22,28.33l1.12,5.89a10.74,10.74,0,0,0,2.75,1,14.63,14.63,0,0,0,3.42.43,12.37,12.37,0,0,0,3.26-.43A9.12,9.12,0,0,0,141.52,34a6.32,6.32,0,0,0,1.88-1.87,4.61,4.61,0,0,0,.7-2.5,4.17,4.17,0,0,0-.9-2.72A8.11,8.11,0,0,0,140.87,25a19.22,19.22,0,0,0-3.22-1.42c-1.2-.41-2.42-.84-3.65-1.29s-2.57-1.14-3.79-1.72A13.71,13.71,0,0,1,127,18.43a9.22,9.22,0,0,1-2.28-3,11.75,11.75,0,0,1,.26-9.32,9.8,9.8,0,0,1,2.91-3.42,12.27,12.27,0,0,1,4.27-2A20.16,20.16,0,0,1,137.25,0a23.4,23.4,0,0,1,2.64.17c.93.11,1.85.25,2.74.42s1.74.36,2.53.56l2,.54,1.79.56-.28,9.53h-3.64l-1.91-6A19.77,19.77,0,0,0,140,5.05a22.42,22.42,0,0,0-3.17-.22,9.79,9.79,0,0,0-3,.42,7.38,7.38,0,0,0-2.25,1.15A5.74,5.74,0,0,0,130.23,8a3.75,3.75,0,0,0-.5,1.85,4.86,4.86,0,0,0,1.57,3.7,13.58,13.58,0,0,0,3.76,2.3c1.5.64,3.11,1.24,4.85,1.8a25.58,25.58,0,0,1,4.83,2.1,11.78,11.78,0,0,1,3.7,3.29,8.67,8.67,0,0,1,1.49,5.27,11.49,11.49,0,0,1-1.12,5.16,11,11,0,0,1-3.09,3.79,14.05,14.05,0,0,1-4.66,2.36,20.13,20.13,0,0,1-5.78.81,21.47,21.47,0,0,1-2.66-.17c-1-.11-1.89-.25-2.81-.42s-1.77-.35-2.55-.56-1.44-.4-2-.59l-1.57-.56V28.34Z"/><path id="Path_25" data-name="Path 25" class="cls-1" d="M238.44,20.64a27,27,0,0,1,1.26-8.52,18.56,18.56,0,0,1,3.67-6.54,16.17,16.17,0,0,1,5.76-4.15,20.12,20.12,0,0,1,14.78-.05,15.11,15.11,0,0,1,5.53,4,17.59,17.59,0,0,1,3.45,6.23,26.7,26.7,0,0,1,1.18,8.19,24.86,24.86,0,0,1-1.35,8.33,19.2,19.2,0,0,1-3.79,6.51,17.44,17.44,0,0,1-5.86,4.27,18.46,18.46,0,0,1-7.58,1.54,15.8,15.8,0,0,1-12.65-5.11Q238.43,30.17,238.44,20.64ZM256.39,4.76q-11.5,0-11.5,15.43t10.94,15.44a10.45,10.45,0,0,0,8.71-3.93q3.07-3.93,3.08-11.79Q267.62,4.76,256.39,4.76Z"/><path id="Path_26" data-name="Path 26" class="cls-1" d="M330,39.83,311.43,8.91V35.34l5.33,1.13v3.37H301.61V36.47l4.77-1.13V5l-4.77-1.12V.84L313.39.55l18.52,31.37V5l-4.77-1.12V.84L341.73.55V3.93L337,5.05V39.84Z"/><path id="Path_27" data-name="Path 27" class="cls-1" d="M376,28.33l1.13,5.89a10.61,10.61,0,0,0,2.75,1,14.56,14.56,0,0,0,3.42.43,12.29,12.29,0,0,0,3.25-.43A8.91,8.91,0,0,0,389.32,34a6.32,6.32,0,0,0,1.88-1.87,4.46,4.46,0,0,0,.71-2.5,4.06,4.06,0,0,0-.9-2.72A8.2,8.2,0,0,0,388.69,25a19,19,0,0,0-3.23-1.42c-1.2-.41-2.41-.84-3.65-1.29s-2.57-1.14-3.79-1.72a13.92,13.92,0,0,1-3.25-2.13,9.33,9.33,0,0,1-2.27-3,11.71,11.71,0,0,1,.25-9.32,9.93,9.93,0,0,1,2.92-3.42,12.23,12.23,0,0,1,4.26-2A20.21,20.21,0,0,1,385.06,0a23.25,23.25,0,0,1,2.64.17c.93.11,1.85.25,2.75.42s1.74.36,2.53.56l2,.54,1.79.56-.28,9.53h-3.65l-1.9-6a19.63,19.63,0,0,0-3.12-.73,22.42,22.42,0,0,0-3.17-.22,9.73,9.73,0,0,0-2.94.42,7.26,7.26,0,0,0-2.25,1.15A5.59,5.59,0,0,0,378.05,8a3.64,3.64,0,0,0-.5,1.85,4.82,4.82,0,0,0,1.57,3.7,13.58,13.58,0,0,0,3.76,2.3q2.24,1,4.85,1.8a25.49,25.49,0,0,1,4.82,2.1,11.7,11.7,0,0,1,3.71,3.29,8.73,8.73,0,0,1,1.49,5.27,11.36,11.36,0,0,1-1.13,5.16,10.9,10.9,0,0,1-3.08,3.79,14.05,14.05,0,0,1-4.66,2.36,20.13,20.13,0,0,1-5.78.81,21.47,21.47,0,0,1-2.66-.17c-1-.11-1.89-.25-2.81-.42s-1.77-.35-2.55-.56a20.29,20.29,0,0,1-2-.59l-1.57-.56V28.34Z"/><path id="Path_28" data-name="Path 28" class="cls-1" d="M445,36.47v3.37H429.58V36.47l4.77-1.13V5l-4.77-1.12V.84L445,.55V3.93l-4.77,1.12V35.34Z"/><path id="Path_29" data-name="Path 29" class="cls-1" d="M490,39.83,478,5l-4.32-1.12V.84L489.43.55V3.93L484.33,5l8.8,27.27,9.38-27.21-5.22-1.12V.84L512.44.56V3.93l-4.38,1.13L495.6,39.84Z"/><path id="Path_30" data-name="Path 30" class="cls-1" d="M559.66,5H547.6V17.11h12.9v4.48H547.6V35.34h12.9l1.12-5.61h3.65v10.1H536.93V36.46l4.77-1.13V5l-4.77-1.12V.84L547.59.55h17.12v9.54h-3.65Z"/><path class="cls-1" d="M16.43,5.3c2,0,7,.86,7,6.69,0,1.67-.75,6.68-8.62,6.68H10.59V10.83L4.75,9.53V35.38L0,36.5v3.34H15.33V36.48L10.6,35.36V22.83h1.71c5.86,0,7.15,4.16,8.53,7.16,1.14,2.49,4.52,9.83,4.52,9.83h8.35V36.48l-4-.89c-.29.18-6-13.33-7.74-13.87A10.22,10.22,0,0,0,29.24,12C29.24,3.05,21,.84,16.71.84H0v2.1L10.59,5.3Z"/><path class="cls-1" d="M196.08,25.24a18.64,18.64,0,0,0,11.19-3.36,13,13,0,0,0,4-9.82,11,11,0,0,0-3.33-8.42A14.54,14.54,0,0,0,198.33.55l-16.55,0v3.4l2.58.61.17,0,2,.47v10.1h0V35.34l-4.77,1.13v3.37h15.43V36.47l-4.77-1.13V25.24Zm7.36-18a8.27,8.27,0,0,1,1.91,5.66q0,7.86-9.26,7.86h-3.65V5.05h5.61A6.87,6.87,0,0,1,203.44,7.24Z"/><rect class="cls-2" y="78.85" width="326.62" height="1.78"/></svg>