<svg id="Lag_1" data-name="Lag 1" xmlns="http://www.w3.org/2000/svg" viewBox="0 0 683.07 97.43"><defs><style>.cls-1{fill:#f0f4f7;}.cls-2{fill:#487388;}</style></defs><path id="Path_23" data-name="Path 23" class="cls-1" d="M102.28,6.09H87.7V20.67h15.6v5.42H87.7V42.71h15.6l1.35-6.78h4.41v12.2H74.82V44.05l5.76-1.35V6.09L74.82,4.74V1L87.7.67h20.68V12.19H104Z"/><path id="Path_24" data-name="Path 24" class="cls-1" d="M154.94,34.23l1.35,7.12a13.5,13.5,0,0,0,3.33,1.19,18,18,0,0,0,4.13.51,15.43,15.43,0,0,0,3.94-.51A11.2,11.2,0,0,0,171,41.08a7.79,7.79,0,0,0,2.27-2.27,5.46,5.46,0,0,0,.85-3A5,5,0,0,0,173,32.5a10.06,10.06,0,0,0-2.81-2.3,23.35,23.35,0,0,0-3.9-1.72q-2.18-.75-4.41-1.56-2.37-1-4.58-2.07a17,17,0,0,1-3.93-2.58,11.09,11.09,0,0,1-2.74-3.69A14.18,14.18,0,0,1,151,7.32a12.11,12.11,0,0,1,3.53-4.13A15.1,15.1,0,0,1,159.65.78a24.91,24.91,0,0,1,6.2-.78A28.32,28.32,0,0,1,169,.21c1.13.13,2.23.3,3.32.51s2.1.43,3,.67l2.44.65,2.17.67-.34,11.53h-4.41L173,7a23.34,23.34,0,0,0-3.76-.89,27.29,27.29,0,0,0-3.83-.27,11.88,11.88,0,0,0-3.56.51,8.76,8.76,0,0,0-2.72,1.39,6.94,6.94,0,0,0-1.73,2,4.62,4.62,0,0,0-.61,2.24,5.89,5.89,0,0,0,1.9,4.47,16.36,16.36,0,0,0,4.55,2.78c1.8.77,3.76,1.5,5.86,2.17a30.85,30.85,0,0,1,5.83,2.55,14.3,14.3,0,0,1,4.48,4,10.48,10.48,0,0,1,1.79,6.38,13.7,13.7,0,0,1-1.35,6.23,13.27,13.27,0,0,1-3.73,4.58,16.92,16.92,0,0,1-5.63,2.85,23.93,23.93,0,0,1-7,1,26.51,26.51,0,0,1-3.22-.2c-1.16-.14-2.29-.3-3.4-.51s-2.13-.43-3.08-.68a24.6,24.6,0,0,1-2.37-.71l-1.9-.68V34.25Z"/><path id="Path_25" data-name="Path 25" class="cls-1" d="M288.13,24.94a32.72,32.72,0,0,1,1.52-10.3,22.54,22.54,0,0,1,4.44-7.9,19.41,19.41,0,0,1,7-5,24.4,24.4,0,0,1,17.87-.07,18.36,18.36,0,0,1,6.68,4.78A21.11,21.11,0,0,1,329.76,14a31.87,31.87,0,0,1,1.42,9.89,29.69,29.69,0,0,1-1.63,10.07A23.38,23.38,0,0,1,325,41.8,21,21,0,0,1,317.89,47a22,22,0,0,1-9.15,1.87,19.12,19.12,0,0,1-15.29-6.17Q288.13,36.47,288.13,24.94ZM309.82,5.76q-13.89,0-13.9,18.64t13.23,18.65a12.59,12.59,0,0,0,10.51-4.75q3.73-4.74,3.73-14.24Q323.39,5.76,309.82,5.76Z"/><path id="Path_26" data-name="Path 26" class="cls-1" d="M398.71,48.13,376.33,10.77V42.71l6.44,1.36v4.07h-18.3V44.07l5.76-1.36V6.09l-5.76-1.35V1L378.7.67l22.38,37.9V6.09l-5.76-1.35V1L412.94.67V4.75L407.18,6.1v42Z"/><path id="Path_27" data-name="Path 27" class="cls-1" d="M454.38,34.23l1.36,7.12a13.57,13.57,0,0,0,3.32,1.19,18.11,18.11,0,0,0,4.14.51,15.3,15.3,0,0,0,3.93-.51,11.26,11.26,0,0,0,3.33-1.46,7.79,7.79,0,0,0,2.27-2.27,5.55,5.55,0,0,0,.86-3,5,5,0,0,0-1.09-3.29,10.06,10.06,0,0,0-2.81-2.3,22.56,22.56,0,0,0-3.9-1.72q-2.18-.75-4.41-1.56-2.37-1-4.58-2.07a17,17,0,0,1-3.93-2.58,11.12,11.12,0,0,1-2.75-3.69,14.22,14.22,0,0,1,.31-11.26A12.08,12.08,0,0,1,454,3.19,15.19,15.19,0,0,1,459.1.78,25,25,0,0,1,465.31,0a28.47,28.47,0,0,1,3.19.21c1.12.13,2.23.3,3.32.51s2.1.43,3.05.67l2.44.65,2.17.67-.34,11.53h-4.41L472.43,7a23.21,23.21,0,0,0-3.77-.89,27,27,0,0,0-3.82-.27,11.88,11.88,0,0,0-3.56.51,8.76,8.76,0,0,0-2.72,1.39,6.76,6.76,0,0,0-1.72,2,4.41,4.41,0,0,0-.61,2.24,5.84,5.84,0,0,0,1.89,4.47,16.36,16.36,0,0,0,4.55,2.78c1.8.77,3.76,1.5,5.86,2.17a30.85,30.85,0,0,1,5.83,2.55,14.3,14.3,0,0,1,4.48,4,10.48,10.48,0,0,1,1.79,6.38,13.7,13.7,0,0,1-1.35,6.23,13.27,13.27,0,0,1-3.73,4.58,16.82,16.82,0,0,1-5.63,2.85,23.88,23.88,0,0,1-7,1,26.64,26.64,0,0,1-3.22-.2c-1.16-.14-2.29-.3-3.39-.51s-2.14-.43-3.09-.68-1.74-.48-2.36-.71l-1.9-.68V34.25Z"/><path id="Path_28" data-name="Path 28" class="cls-1" d="M537.75,44.07v4.07H519.11V44.07l5.76-1.36V6.09l-5.76-1.35V1L537.75.67V4.75L532,6.1V42.71Z"/><path id="Path_29" data-name="Path 29" class="cls-1" d="M592.1,48.13l-14.44-42-5.22-1.35V1l19-.34V4.75L585.26,6,595.9,39,607.23,6.1l-6.31-1.36V1L619.23.67V4.75l-5.29,1.36-15.06,42Z"/><path id="Path_30" data-name="Path 30" class="cls-1" d="M676.29,6.09H661.71V20.67h15.6v5.42h-15.6V42.71h15.6l1.35-6.78h4.41v12.2H648.83V44.05l5.76-1.35V6.09l-5.76-1.35V1L661.71.67h20.68V12.19H678Z"/><path class="cls-1" d="M19.86,6.41c2.37,0,8.41,1,8.41,8.08,0,2-.91,8.07-10.42,8.07H12.8V13.09L5.73,11.52V42.76L0,44.1v4H18.53V44.08l-5.72-1.35V27.59h2.06c7.09,0,8.65,5,10.31,8.65,1.39,3,5.46,11.88,5.46,11.88h10.1v-4L35.94,43c-.36.22-7.22-16.11-9.35-16.76a12.36,12.36,0,0,0,8.75-11.76C35.34,3.69,25.32,1,20.19,1H0V3.55L12.8,6.41Z"/><path class="cls-1" d="M236.94,30.5c4.67,0,9.65-1.13,13.52-4.07a15.68,15.68,0,0,0,4.78-11.86,13.26,13.26,0,0,0-4-10.17A17.53,17.53,0,0,0,239.66.67l-20,0V4.74l3.12.73.21,0,2.44.58V18.28h0V42.71l-5.76,1.36v4.07h18.64V44.07l-5.76-1.36V30.5Zm8.9-21.76a10,10,0,0,1,2.3,6.85q0,9.5-11.18,9.49h-4.41V6.1h6.78A8.35,8.35,0,0,1,245.84,8.74Z"/><rect class="cls-2" y="95.28" width="394.68" height="2.15"/></svg>