<svg id="Lag_1" data-name="Lag 1" xmlns="http://www.w3.org/2000/svg" viewBox="0 0 685.27 97.43"><defs><style>.cls-1{fill:#f0f4f7;}.cls-2{fill:#487388;}</style></defs><path id="Path_23" data-name="Path 23" class="cls-1" d="M104.48,6.09H89.9V20.67h15.59v5.42H89.9V42.71h15.59l1.36-6.78h4.41v12.2H77V44.05l5.76-1.35V6.09L77,4.74V1L89.89.67h20.68V12.19h-4.4Z"/><path id="Path_24" data-name="Path 24" class="cls-1" d="M157.13,34.23l1.36,7.12a13.57,13.57,0,0,0,3.32,1.19,18,18,0,0,0,4.14.51,15.3,15.3,0,0,0,3.93-.51,11.2,11.2,0,0,0,3.32-1.46,7.83,7.83,0,0,0,2.28-2.27,5.45,5.45,0,0,0,.84-3,5,5,0,0,0-1.08-3.29,10,10,0,0,0-2.82-2.3,22.89,22.89,0,0,0-3.89-1.72q-2.17-.75-4.41-1.56-2.37-1-4.58-2.07a16.79,16.79,0,0,1-3.93-2.58,11.12,11.12,0,0,1-2.75-3.69,14.22,14.22,0,0,1,.31-11.26,12.08,12.08,0,0,1,3.52-4.13A15.19,15.19,0,0,1,161.84.78,25,25,0,0,1,168.05,0a28.14,28.14,0,0,1,3.18.21c1.13.13,2.24.3,3.32.51s2.11.43,3.06.67l2.44.65,2.17.67-.34,11.53h-4.41L175.16,7a22.85,22.85,0,0,0-3.76-.89,27.29,27.29,0,0,0-3.83-.27,12,12,0,0,0-3.56.51,8.6,8.6,0,0,0-2.71,1.39,6.79,6.79,0,0,0-1.73,2,4.51,4.51,0,0,0-.61,2.24,5.89,5.89,0,0,0,1.9,4.47,16.31,16.31,0,0,0,4.54,2.78c1.81.77,3.76,1.5,5.87,2.17a31.14,31.14,0,0,1,5.83,2.55,14.26,14.26,0,0,1,4.47,4,10.55,10.55,0,0,1,1.8,6.38A13.71,13.71,0,0,1,182,40.48a13.16,13.16,0,0,1-3.73,4.58,16.82,16.82,0,0,1-5.63,2.85,23.88,23.88,0,0,1-7,1,26.64,26.64,0,0,1-3.22-.2c-1.15-.14-2.28-.3-3.39-.51s-2.14-.43-3.08-.68-1.74-.48-2.38-.71l-1.9-.68V34.25Z"/><path id="Path_25" data-name="Path 25" class="cls-1" d="M290.32,24.94a32.72,32.72,0,0,1,1.53-10.3,22.24,22.24,0,0,1,4.44-7.9,19.32,19.32,0,0,1,6.95-5,24.4,24.4,0,0,1,17.87-.07,18.25,18.25,0,0,1,6.67,4.78A20.81,20.81,0,0,1,332,14a32.17,32.17,0,0,1,1.43,9.89,29.69,29.69,0,0,1-1.63,10.07,23.24,23.24,0,0,1-4.58,7.87A20.87,20.87,0,0,1,320.09,47a22.07,22.07,0,0,1-9.16,1.87,19.13,19.13,0,0,1-15.29-6.17Q290.31,36.47,290.32,24.94ZM312,5.76q-13.9,0-13.9,18.64t13.22,18.65a12.6,12.6,0,0,0,10.52-4.75q3.72-4.74,3.73-14.24Q325.58,5.76,312,5.76Z"/><path id="Path_26" data-name="Path 26" class="cls-1" d="M400.9,48.13,378.53,10.77V42.71L385,44.07v4.07H366.66V44.07l5.76-1.36V6.09l-5.76-1.35V1L380.9.67l22.38,37.9V6.09l-5.77-1.35V1L415.14.67V4.75L409.38,6.1v42Z"/><path id="Path_27" data-name="Path 27" class="cls-1" d="M456.58,34.23l1.36,7.12a13.43,13.43,0,0,0,3.32,1.19,18,18,0,0,0,4.14.51,15.36,15.36,0,0,0,3.93-.51,11.2,11.2,0,0,0,3.32-1.46,7.68,7.68,0,0,0,2.27-2.27,5.39,5.39,0,0,0,.86-3,5,5,0,0,0-1.08-3.29,10.1,10.1,0,0,0-2.82-2.3,22.22,22.22,0,0,0-3.9-1.72c-1.44-.5-2.91-1-4.4-1.56s-3.11-1.37-4.58-2.07a16.58,16.58,0,0,1-3.93-2.58,11.12,11.12,0,0,1-2.75-3.69,14.18,14.18,0,0,1,.3-11.26,12.11,12.11,0,0,1,3.53-4.13A15.19,15.19,0,0,1,461.3.78,25,25,0,0,1,467.5,0a28.32,28.32,0,0,1,3.19.21c1.13.13,2.24.3,3.32.51s2.11.43,3.06.67l2.44.65,2.17.67-.34,11.53h-4.41L474.63,7a23.21,23.21,0,0,0-3.77-.89A27.29,27.29,0,0,0,467,5.83a12,12,0,0,0-3.56.51,8.6,8.6,0,0,0-2.71,1.39,6.79,6.79,0,0,0-1.73,2,4.62,4.62,0,0,0-.61,2.24,5.89,5.89,0,0,0,1.9,4.47,16.31,16.31,0,0,0,4.54,2.78c1.81.77,3.76,1.5,5.87,2.17a31.14,31.14,0,0,1,5.83,2.55,14.26,14.26,0,0,1,4.47,4,10.55,10.55,0,0,1,1.8,6.38,13.71,13.71,0,0,1-1.36,6.23,13.16,13.16,0,0,1-3.73,4.58,16.78,16.78,0,0,1-5.62,2.85,24,24,0,0,1-7,1,26.76,26.76,0,0,1-3.22-.2c-1.15-.14-2.28-.3-3.39-.51s-2.13-.43-3.08-.68-1.74-.48-2.37-.71l-1.89-.68V34.25Z"/><path id="Path_28" data-name="Path 28" class="cls-1" d="M540,44.07v4.07H521.3V44.07l5.76-1.36V6.09L521.3,4.74V1L540,.67V4.75L534.18,6.1V42.71Z"/><path id="Path_29" data-name="Path 29" class="cls-1" d="M594.3,48.13l-14.44-42-5.22-1.35V1l19-.34V4.75L587.45,6,598.1,39,609.42,6.1l-6.3-1.36V1l18.3-.35V4.75l-5.29,1.36-15,42Z"/><path id="Path_30" data-name="Path 30" class="cls-1" d="M678.49,6.09H663.91V20.67H679.5v5.42H663.91V42.71H679.5l1.36-6.78h4.41v12.2H651V44.05l5.76-1.35V6.09L651,4.74V1L663.9.67h20.68V12.19h-4.4Z"/><path class="cls-1" d="M22.05,6.41c2.38,0,8.42,1,8.42,8.08,0,2-.91,8.07-10.42,8.07H15V13.09L7.93,11.52V42.76L2.21,44.1v4H20.72V44.08L15,42.73V27.59h2.07c7.09,0,8.65,5,10.31,8.65l5.46,11.88H42.93v-4L38.14,43c-.36.22-7.23-16.11-9.36-16.76a12.36,12.36,0,0,0,8.75-11.76C37.53,3.69,27.51,1,22.39,1H2.2V3.55L15,6.41Z"/><path class="cls-1" d="M239.14,30.5c4.67,0,9.65-1.13,13.52-4.07a15.68,15.68,0,0,0,4.78-11.86,13.26,13.26,0,0,0-4-10.17A17.57,17.57,0,0,0,241.86.67l-20,0V4.74l3.11.73.21,0,2.44.58V18.28h0V42.71l-5.77,1.36v4.07h18.65V44.07l-5.76-1.36V30.5ZM248,8.74a10,10,0,0,1,2.31,6.85q0,9.5-11.19,9.49h-4.4V6.1h6.77A8.35,8.35,0,0,1,248,8.74Z"/><rect class="cls-2" x="290.58" y="95.28" width="394.68" height="2.15"/></svg>