<svg id="Lag_1" data-name="Lag 1" xmlns="http://www.w3.org/2000/svg" viewBox="0 0 615.34 88.98"><defs><style>.cls-1{fill:#f0f4f7;}.cls-2{fill:#c8443c;}</style></defs><path id="Path_23" data-name="Path 23" class="cls-1" d="M92.14,6.7H79V19.84h14v4.88H79v15h14l1.23-6.11h4v11H67.4V40.9l5.19-1.22V6.7L67.4,5.48V2.12L79,1.82H97.63V12.2h-4Z"/><path id="Path_24" data-name="Path 24" class="cls-1" d="M139.58,32.05l1.22,6.41a12.15,12.15,0,0,0,3,1.08,16.12,16.12,0,0,0,3.72.46,14.17,14.17,0,0,0,3.55-.46,10.26,10.26,0,0,0,3-1.32,7,7,0,0,0,2-2,5,5,0,0,0,.76-2.72,4.49,4.49,0,0,0-1-3,9,9,0,0,0-2.53-2.07,20.7,20.7,0,0,0-3.51-1.55c-1.31-.45-2.63-.92-4-1.4s-2.8-1.24-4.13-1.87a15,15,0,0,1-3.54-2.32A10,10,0,0,1,135.73,18,12.77,12.77,0,0,1,136,7.81a10.85,10.85,0,0,1,3.18-3.72,13.52,13.52,0,0,1,4.64-2.17,21.91,21.91,0,0,1,5.59-.7,23,23,0,0,1,2.87.18c1,.12,2,.28,3,.46s1.89.39,2.75.61l2.19.58,2,.61L161.86,14h-4l-2.07-6.53a22,22,0,0,0-3.39-.8A24.9,24.9,0,0,0,149,6.47a10.56,10.56,0,0,0-3.21.46,7.73,7.73,0,0,0-2.44,1.25A6.14,6.14,0,0,0,141.77,10a4,4,0,0,0-.55,2,5.26,5.26,0,0,0,1.71,4A14.69,14.69,0,0,0,147,18.5q2.44,1,5.29,2a28.12,28.12,0,0,1,5.25,2.29,12.89,12.89,0,0,1,4,3.57,9.54,9.54,0,0,1,1.62,5.75A12.44,12.44,0,0,1,162,37.69a12.19,12.19,0,0,1-3.36,4.12,15.45,15.45,0,0,1-5.07,2.56,21.69,21.69,0,0,1-6.29.89,28.41,28.41,0,0,1-2.91-.18c-1-.12-2.05-.28-3.05-.46s-1.92-.39-2.78-.61-1.57-.44-2.14-.64l-1.71-.61V32.07Z"/><path id="Path_25" data-name="Path 25" class="cls-1" d="M259.56,23.69a29.59,29.59,0,0,1,1.37-9.29,20,20,0,0,1,4-7.11,17.47,17.47,0,0,1,6.26-4.52,22,22,0,0,1,16.1-.06,16.4,16.4,0,0,1,6,4.31,18.77,18.77,0,0,1,3.76,6.78,28.9,28.9,0,0,1,1.28,8.91,26.85,26.85,0,0,1-1.46,9.07,21.07,21.07,0,0,1-4.13,7.09,18.8,18.8,0,0,1-6.38,4.64,19.85,19.85,0,0,1-8.25,1.68,17.19,17.19,0,0,1-13.77-5.56Q259.55,34.07,259.56,23.69ZM279.1,6.4q-12.53,0-12.52,16.8T278.49,40A11.37,11.37,0,0,0,288,35.72q3.36-4.28,3.36-12.83Q291.32,6.41,279.1,6.4Z"/><path id="Path_26" data-name="Path 26" class="cls-1" d="M359.17,44.58,339,10.92V39.69l5.8,1.22v3.67H328.33V40.91l5.19-1.22V6.7l-5.19-1.22V2.12l12.82-.3L361.31,36V6.7l-5.19-1.22V2.12L372,1.82V5.49l-5.19,1.22V44.58Z"/><path id="Path_27" data-name="Path 27" class="cls-1" d="M409.33,32.05l1.22,6.41a12.3,12.3,0,0,0,3,1.08,16.14,16.14,0,0,0,3.73.46,14,14,0,0,0,3.54-.46,10.2,10.2,0,0,0,3-1.32,7,7,0,0,0,2-2,5,5,0,0,0,.78-2.72,4.55,4.55,0,0,0-1-3,8.92,8.92,0,0,0-2.54-2.07,20.35,20.35,0,0,0-3.51-1.55l-4-1.4q-2.14-.93-4.12-1.87A14.63,14.63,0,0,1,408,21.28,10.15,10.15,0,0,1,405.49,18a12.77,12.77,0,0,1,.28-10.14,10.83,10.83,0,0,1,3.17-3.72,13.6,13.6,0,0,1,4.64-2.17,22,22,0,0,1,5.59-.7A22.92,22.92,0,0,1,422,1.4c1,.12,2,.28,3,.46s1.9.39,2.75.61l2.2.58,2,.61L431.63,14h-4l-2.07-6.53a22.09,22.09,0,0,0-3.4-.8,24.79,24.79,0,0,0-3.45-.24,10.55,10.55,0,0,0-3.2.46,7.78,7.78,0,0,0-2.45,1.25A6,6,0,0,0,411.54,10a4,4,0,0,0-.55,2,5.26,5.26,0,0,0,1.71,4,14.69,14.69,0,0,0,4.09,2.5q2.44,1,5.28,2a27.92,27.92,0,0,1,5.26,2.29,12.89,12.89,0,0,1,4,3.57A9.54,9.54,0,0,1,433,32.07a12.45,12.45,0,0,1-1.23,5.62,12,12,0,0,1-3.36,4.12,15.3,15.3,0,0,1-5.06,2.56,21.7,21.7,0,0,1-6.3.89,28.21,28.21,0,0,1-2.9-.18c-1-.12-2.05-.28-3.05-.46s-1.93-.39-2.78-.61-1.57-.44-2.13-.64l-1.71-.61V32.07Z"/><path id="Path_28" data-name="Path 28" class="cls-1" d="M484.43,40.91v3.67h-16.8V40.91l5.19-1.22V6.7l-5.19-1.22V2.12l16.8-.3V5.49l-5.19,1.22v33Z"/><path id="Path_29" data-name="Path 29" class="cls-1" d="M533.39,44.58l-13-37.88-4.7-1.22V2.12l17.1-.3V5.49l-5.56,1.16,9.59,29.68L547,6.71l-5.69-1.22V2.13l16.5-.31V5.5l-4.77,1.22L539.5,44.59Z"/><path id="Path_30" data-name="Path 30" class="cls-1" d="M609.23,6.7H596.1V19.84h14v4.88h-14v15h14l1.22-6.11h4v11H584.49V40.9l5.2-1.22V6.7l-5.2-1.22V2.12l11.61-.3h18.62V12.2h-4Z"/><path class="cls-1" d="M17.89,7c2.14,0,7.58.93,7.58,7.28,0,1.82-.82,7.27-9.39,7.27H11.53V13L5.17,11.59V39.73L0,41v3.63H16.69V40.92l-5.15-1.21V26.07H13.4c6.38,0,7.79,4.53,9.29,7.79l4.91,10.7h9.1V40.92l-4.32-1c-.33.2-6.51-14.51-8.43-15.1a11.14,11.14,0,0,0,7.88-10.59c0-9.73-9-12.14-13.64-12.14H0V4.42L11.53,7Z"/><path class="cls-1" d="M213.45,28.69A20.24,20.24,0,0,0,225.63,25a14.14,14.14,0,0,0,4.3-10.69,11.92,11.92,0,0,0-3.62-9.16A15.77,15.77,0,0,0,215.9,1.82l-18,0V5.48l2.81.66.18,0,2.21.52v11h0v22l-5.19,1.22v3.67h16.79V40.91l-5.19-1.22v-11Zm8-19.6a9,9,0,0,1,2.08,6.17q0,8.55-10.08,8.55h-4V6.71h6.11A7.48,7.48,0,0,1,221.46,9.09Z"/><rect class="cls-2" y="87.05" width="355.55" height="1.93"/></svg>