<svg id="Lag_1" data-name="Lag 1" xmlns="http://www.w3.org/2000/svg" viewBox="0 0 683.06 97.43"><defs><style>.cls-1{fill:#f0f4f7;}.cls-2{fill:#487388;}</style></defs><path id="Path_23" data-name="Path 23" class="cls-1" d="M102.27,6.09H87.69V20.67h15.59v5.42H87.69V42.71h15.59l1.36-6.78h4.41v12.2H74.81V44.05l5.76-1.35V6.09L74.81,4.74V1L87.68.67h20.68V12.19H104Z"/><path id="Path_24" data-name="Path 24" class="cls-1" d="M154.92,34.23l1.36,7.12a13.57,13.57,0,0,0,3.32,1.19,18,18,0,0,0,4.14.51,15.3,15.3,0,0,0,3.93-.51A11.2,11.2,0,0,0,171,41.08a7.83,7.83,0,0,0,2.28-2.27,5.45,5.45,0,0,0,.84-3A5,5,0,0,0,173,32.5a10.1,10.1,0,0,0-2.82-2.3,23,23,0,0,0-3.9-1.72c-1.44-.5-2.91-1-4.4-1.56s-3.11-1.37-4.58-2.07a16.79,16.79,0,0,1-3.93-2.58,11.12,11.12,0,0,1-2.75-3.69A14.22,14.22,0,0,1,151,7.32a12.08,12.08,0,0,1,3.52-4.13A15.19,15.19,0,0,1,159.63.78,25,25,0,0,1,165.84,0,28.3,28.3,0,0,1,169,.21c1.13.13,2.24.3,3.32.51s2.11.43,3,.67l2.45.65,2.17.67-.34,11.53h-4.41L173,7a22.85,22.85,0,0,0-3.76-.89,27.29,27.29,0,0,0-3.83-.27,11.93,11.93,0,0,0-3.56.51,8.6,8.6,0,0,0-2.71,1.39,6.79,6.79,0,0,0-1.73,2,4.41,4.41,0,0,0-.61,2.24,5.89,5.89,0,0,0,1.9,4.47,16.31,16.31,0,0,0,4.54,2.78c1.81.77,3.76,1.5,5.87,2.17a31.43,31.43,0,0,1,5.83,2.55,14.26,14.26,0,0,1,4.47,4,10.55,10.55,0,0,1,1.8,6.38,13.71,13.71,0,0,1-1.36,6.23,13.16,13.16,0,0,1-3.73,4.58,16.82,16.82,0,0,1-5.63,2.85,23.88,23.88,0,0,1-7,1,26.64,26.64,0,0,1-3.22-.2c-1.15-.14-2.28-.3-3.39-.51s-2.14-.43-3.09-.68-1.74-.48-2.37-.71l-1.9-.68V34.25Z"/><path id="Path_25" data-name="Path 25" class="cls-1" d="M288.11,24.94a32.72,32.72,0,0,1,1.53-10.3,22.24,22.24,0,0,1,4.44-7.9,19.32,19.32,0,0,1,6.95-5,24.37,24.37,0,0,1,17.86-.07,18.2,18.2,0,0,1,6.68,4.78A20.81,20.81,0,0,1,329.74,14a32.17,32.17,0,0,1,1.43,9.89,29.94,29.94,0,0,1-1.63,10.07A23.41,23.41,0,0,1,325,41.8,20.87,20.87,0,0,1,317.88,47a22.07,22.07,0,0,1-9.16,1.87,19.13,19.13,0,0,1-15.29-6.17Q288.11,36.47,288.11,24.94Zm21.7-19.18q-13.9,0-13.9,18.64t13.22,18.65a12.6,12.6,0,0,0,10.52-4.75q3.72-4.74,3.73-14.24Q323.37,5.76,309.81,5.76Z"/><path id="Path_26" data-name="Path 26" class="cls-1" d="M398.69,48.13,376.32,10.77V42.71l6.44,1.36v4.07H364.45V44.07l5.76-1.36V6.09l-5.76-1.35V1L378.69.67l22.37,37.9V6.09L395.3,4.74V1L412.93.67V4.75L407.17,6.1v42Z"/><path id="Path_27" data-name="Path 27" class="cls-1" d="M454.37,34.23l1.36,7.12a13.43,13.43,0,0,0,3.32,1.19,18,18,0,0,0,4.13.51,15.43,15.43,0,0,0,3.94-.51,11.2,11.2,0,0,0,3.32-1.46,7.68,7.68,0,0,0,2.27-2.27,5.39,5.39,0,0,0,.86-3,5,5,0,0,0-1.08-3.29,10.1,10.1,0,0,0-2.82-2.3,22.22,22.22,0,0,0-3.9-1.72l-4.41-1.56q-2.37-1-4.57-2.07a16.58,16.58,0,0,1-3.93-2.58,11,11,0,0,1-2.75-3.69,14.18,14.18,0,0,1,.3-11.26,12.11,12.11,0,0,1,3.53-4.13A15.19,15.19,0,0,1,459.09.78a25,25,0,0,1,6.2-.78,28.32,28.32,0,0,1,3.19.21c1.13.13,2.24.3,3.32.51s2.11.43,3.06.67L477.3,2l2.17.67-.34,11.53h-4.41L472.41,7a22.85,22.85,0,0,0-3.76-.89,27.29,27.29,0,0,0-3.83-.27,11.93,11.93,0,0,0-3.56.51,8.6,8.6,0,0,0-2.71,1.39,6.79,6.79,0,0,0-1.73,2,4.62,4.62,0,0,0-.61,2.24,5.89,5.89,0,0,0,1.9,4.47,16.31,16.31,0,0,0,4.54,2.78c1.81.77,3.76,1.5,5.86,2.17a31.23,31.23,0,0,1,5.84,2.55,14.26,14.26,0,0,1,4.47,4,10.55,10.55,0,0,1,1.8,6.38,13.71,13.71,0,0,1-1.36,6.23,13.16,13.16,0,0,1-3.73,4.58,16.87,16.87,0,0,1-5.62,2.85,24,24,0,0,1-7,1,26.76,26.76,0,0,1-3.22-.2c-1.15-.14-2.28-.3-3.39-.51s-2.13-.43-3.08-.68-1.75-.48-2.37-.71l-1.9-.68V34.25Z"/><path id="Path_28" data-name="Path 28" class="cls-1" d="M537.74,44.07v4.07H519.09V44.07l5.76-1.36V6.09l-5.76-1.35V1L537.74.67V4.75L532,6.1V42.71Z"/><path id="Path_29" data-name="Path 29" class="cls-1" d="M592.09,48.13l-14.44-42-5.22-1.35V1l19-.34V4.75L585.24,6,595.89,39,607.21,6.1,600.9,4.74V1L619.21.67V4.75l-5.29,1.36-15,42Z"/><path id="Path_30" data-name="Path 30" class="cls-1" d="M676.27,6.09H661.7V20.67h15.59v5.42H661.7V42.71h15.59l1.36-6.78h4.41v12.2H648.81V44.05l5.77-1.35V6.09l-5.77-1.35V1L661.69.67h20.68V12.19H678Z"/><path class="cls-1" d="M19.84,6.41c2.38,0,8.42,1,8.42,8.08,0,2-.92,8.07-10.42,8.07H12.79V13.09L5.72,11.52V42.76L0,44.1v4H18.51V44.08l-5.72-1.35V27.59h2.07c7.09,0,8.65,5,10.31,8.65l5.46,11.88H40.72v-4L35.93,43c-.36.22-7.23-16.11-9.36-16.76a12.36,12.36,0,0,0,8.75-11.76C35.32,3.69,25.3,1,20.18,1H0V3.55l12.8,2.86Z"/><path class="cls-1" d="M236.93,30.5c4.67,0,9.65-1.13,13.52-4.07a15.68,15.68,0,0,0,4.78-11.86,13.26,13.26,0,0,0-4-10.17A17.57,17.57,0,0,0,239.65.67l-20,0V4.74l3.11.73.21,0,2.44.58V18.28h0V42.71l-5.77,1.36v4.07H238.3V44.07l-5.77-1.36V30.5Zm8.89-21.76a10,10,0,0,1,2.31,6.85q0,9.5-11.19,9.49h-4.41V6.1h6.78A8.35,8.35,0,0,1,245.82,8.74Z"/><rect class="cls-2" x="144.18" y="95.28" width="394.68" height="2.15"/></svg>