<svg id="Lag_1" data-name="Lag 1" xmlns="http://www.w3.org/2000/svg" viewBox="0 0 617.03 87.77"><defs><style>.cls-1{fill:#f0f4f7;}.cls-2{fill:#c8443c;}</style></defs><path id="Path_23" data-name="Path 23" class="cls-1" d="M93.76,5.49H80.63V18.62H94.68v4.89H80.63v15H94.68l1.22-6.11h4v11H69V39.69l5.2-1.23v-33L69,4.27V.91L80.63.6H99.25V11h-4Z"/><path id="Path_24" data-name="Path 24" class="cls-1" d="M141.2,30.84l1.22,6.41a11.73,11.73,0,0,0,3,1.07,15.61,15.61,0,0,0,3.73.46,13.65,13.65,0,0,0,3.54-.46,10,10,0,0,0,3-1.31,7,7,0,0,0,2.05-2,4.85,4.85,0,0,0,.76-2.72,4.53,4.53,0,0,0-1-3A9,9,0,0,0,155,27.2a20.31,20.31,0,0,0-3.51-1.54c-1.3-.45-2.63-.92-4-1.41s-2.8-1.23-4.12-1.86a15.51,15.51,0,0,1-3.55-2.32,10.12,10.12,0,0,1-2.47-3.33,12.81,12.81,0,0,1,.27-10.14,11,11,0,0,1,3.18-3.73A13.7,13.7,0,0,1,145.44.7,22.36,22.36,0,0,1,151,0a25,25,0,0,1,2.87.19c1,.12,2,.27,3,.46s1.89.38,2.75.61l2.2.58,1.95.6-.3,10.39h-4l-2.08-6.54a21.94,21.94,0,0,0-3.39-.79,23.35,23.35,0,0,0-3.45-.24,10.56,10.56,0,0,0-3.21.45A7.76,7.76,0,0,0,145,7a6,6,0,0,0-1.56,1.77,4.15,4.15,0,0,0-.55,2,5.29,5.29,0,0,0,1.71,4,14.63,14.63,0,0,0,4.1,2.51c1.62.69,3.39,1.34,5.28,1.95a28.79,28.79,0,0,1,5.25,2.29,12.93,12.93,0,0,1,4,3.58,9.44,9.44,0,0,1,1.62,5.74,12.41,12.41,0,0,1-1.22,5.62,12,12,0,0,1-3.36,4.12,15.28,15.28,0,0,1-5.07,2.57,21.58,21.58,0,0,1-6.29.88,23.4,23.4,0,0,1-2.9-.18c-1-.12-2.06-.27-3.06-.46s-1.92-.38-2.78-.61-1.56-.43-2.14-.64l-1.7-.61V30.85Z"/><path id="Path_25" data-name="Path 25" class="cls-1" d="M261.18,22.47a29.48,29.48,0,0,1,1.37-9.28,20.26,20.26,0,0,1,4-7.11,17.52,17.52,0,0,1,6.26-4.52,21.94,21.94,0,0,1,16.1-.06,16.52,16.52,0,0,1,6,4.3,19.06,19.06,0,0,1,3.75,6.78A28.7,28.7,0,0,1,300,21.5a26.93,26.93,0,0,1-1.46,9.07,21.07,21.07,0,0,1-4.13,7.09A18.93,18.93,0,0,1,288,42.3,20,20,0,0,1,279.75,44,17.25,17.25,0,0,1,266,38.42Q261.18,32.86,261.18,22.47ZM280.72,5.19Q268.21,5.19,268.2,22t11.91,16.8a11.33,11.33,0,0,0,9.48-4.28Q293,30.23,293,21.68,292.94,5.18,280.72,5.19Z"/><path id="Path_26" data-name="Path 26" class="cls-1" d="M360.79,43.36,340.64,9.7V38.47l5.8,1.23v3.67H330V39.7l5.19-1.23v-33L330,4.27V.91L342.77.6l20.16,34.15V5.49l-5.19-1.22V.91L373.62.6V4.28L368.43,5.5V43.37Z"/><path id="Path_27" data-name="Path 27" class="cls-1" d="M411,30.84l1.22,6.41a11.94,11.94,0,0,0,3,1.07,15.59,15.59,0,0,0,3.72.46,13.59,13.59,0,0,0,3.54-.46,9.92,9.92,0,0,0,3-1.31,7.15,7.15,0,0,0,2.05-2,5,5,0,0,0,.77-2.72,4.48,4.48,0,0,0-1-3,9.05,9.05,0,0,0-2.53-2.08,20.41,20.41,0,0,0-3.52-1.54c-1.3-.45-2.62-.92-4-1.41s-2.8-1.23-4.12-1.86a15.45,15.45,0,0,1-3.54-2.32,10.15,10.15,0,0,1-2.48-3.33,12.77,12.77,0,0,1,.28-10.14,10.86,10.86,0,0,1,3.17-3.73A13.79,13.79,0,0,1,415.2.7a22.48,22.48,0,0,1,5.59-.7,25,25,0,0,1,2.87.19c1,.12,2,.27,3,.46s1.89.38,2.75.61l2.19.58,2,.6-.31,10.39h-4l-2.07-6.54a21.94,21.94,0,0,0-3.39-.79,23.54,23.54,0,0,0-3.45-.24,10.56,10.56,0,0,0-3.21.45A7.76,7.76,0,0,0,414.72,7a6,6,0,0,0-1.56,1.77,4,4,0,0,0-.55,2,5.26,5.26,0,0,0,1.71,4,14.73,14.73,0,0,0,4.09,2.51q2.44,1,5.28,1.95A28.58,28.58,0,0,1,429,21.53a13,13,0,0,1,4,3.58,9.51,9.51,0,0,1,1.62,5.74,12.41,12.41,0,0,1-1.22,5.62A12,12,0,0,1,430,40.59,15.28,15.28,0,0,1,425,43.16a21.58,21.58,0,0,1-6.29.88,23.4,23.4,0,0,1-2.9-.18c-1-.12-2.06-.27-3.06-.46s-1.92-.38-2.78-.61a21.29,21.29,0,0,1-2.13-.64l-1.71-.61V30.85Z"/><path id="Path_28" data-name="Path 28" class="cls-1" d="M486.05,39.7v3.67H469.26V39.7l5.19-1.23v-33l-5.19-1.22V.91L486.05.6V4.28L480.86,5.5v33Z"/><path id="Path_29" data-name="Path 29" class="cls-1" d="M535,43.36,522,5.49,517.3,4.27V.91L534.41.6V4.28l-5.56,1.16,9.59,29.68L548.64,5.5,543,4.27V.91l16.49-.3V4.28L554.68,5.5,541.12,43.37Z"/><path id="Path_30" data-name="Path 30" class="cls-1" d="M610.85,5.49H597.72V18.62h14v4.89h-14v15h14L613,32.36h4v11H586.12V39.69l5.19-1.23v-33l-5.19-1.22V.91L597.72.6h18.63V11h-4Z"/><path class="cls-1" d="M19.51,5.77c2.14,0,7.58.94,7.58,7.28,0,1.82-.82,7.28-9.39,7.28H13.16V11.79L6.79,10.37V38.52L1.64,39.73v3.64H18.31V39.71L13.16,38.5V24.85H15c6.39,0,7.79,4.53,9.29,7.8,1.24,2.71,4.92,10.7,4.92,10.7h9.09V39.71l-4.32-1c-.32.19-6.51-14.52-8.43-15.1a11.14,11.14,0,0,0,7.89-10.6c0-9.73-9-12.14-13.65-12.14H1.62V3.2L13.16,5.77Z"/><path class="cls-1" d="M215.07,27.48a20.16,20.16,0,0,0,12.18-3.67,14.14,14.14,0,0,0,4.31-10.69A12,12,0,0,0,227.93,4,15.77,15.77,0,0,0,217.52.6l-18,0v3.7l2.8.66.19,0,2.2.52v11h0v22l-5.19,1.23v3.67H216.3V39.7l-5.19-1.23v-11Zm8-19.6A9,9,0,0,1,225.16,14q0,8.57-10.08,8.55h-4V5.49h6.11A7.49,7.49,0,0,1,223.08,7.88Z"/><rect class="cls-2" x="261.48" y="85.8" width="355.55" height="1.93"/></svg>