<svg id="Lag_1" data-name="Lag 1" xmlns="http://www.w3.org/2000/svg" viewBox="0 0 630.52 88.4"><defs><style>.cls-1{fill:#26424f;}.cls-2{fill:#c8443c;}</style></defs><path id="Path_23" data-name="Path 23" class="cls-1" d="M94.4,4.09H80.94V17.55h14.4v5H80.94V37.89h14.4l1.25-6.26h4.07V42.9H69.05V39.13l5.32-1.25V4.09L69.05,2.84V-.6L80.94-.92H100V9.72H96Z"/><path id="Path_24" data-name="Path 24" class="cls-1" d="M143,30.07l1.25,6.57a12.76,12.76,0,0,0,3.07,1.09,15.84,15.84,0,0,0,3.81.47,13.57,13.57,0,0,0,3.64-.47,10.19,10.19,0,0,0,3.06-1.34,7.25,7.25,0,0,0,2.1-2.1,5,5,0,0,0,.78-2.79,4.63,4.63,0,0,0-1-3,9.21,9.21,0,0,0-2.6-2.13,20.59,20.59,0,0,0-3.6-1.58c-1.33-.46-2.69-.94-4.06-1.45s-2.87-1.26-4.23-1.91A15,15,0,0,1,141.6,19a10.37,10.37,0,0,1-2.53-3.41,13,13,0,0,1,.28-10.39,11.09,11.09,0,0,1,3.25-3.82,13.74,13.74,0,0,1,4.76-2.22,22.09,22.09,0,0,1,5.72-.72,24.05,24.05,0,0,1,2.94.19c1,.12,2.07.28,3.07.47s1.94.4,2.82.62l2.25.6,2,.62-.31,10.64h-4.07l-2.13-6.69a21.61,21.61,0,0,0-3.47-.82,24.58,24.58,0,0,0-3.54-.25,11,11,0,0,0-3.28.47,7.87,7.87,0,0,0-2.51,1.29,6.13,6.13,0,0,0-1.59,1.81,4.17,4.17,0,0,0-.57,2.06,5.42,5.42,0,0,0,1.76,4.14,15.26,15.26,0,0,0,4.19,2.56q2.51,1.07,5.41,2a29.33,29.33,0,0,1,5.39,2.35,13.42,13.42,0,0,1,4.13,3.66,9.79,9.79,0,0,1,1.66,5.89A12.77,12.77,0,0,1,166,35.84a12.14,12.14,0,0,1-3.44,4.22,15.39,15.39,0,0,1-5.2,2.63,22.28,22.28,0,0,1-6.44.91,26.76,26.76,0,0,1-3-.19c-1.07-.12-2.11-.28-3.13-.47s-2-.39-2.85-.62-1.61-.45-2.19-.66L138,41v-11Z"/><path id="Path_25" data-name="Path 25" class="cls-1" d="M266,21.49A30.41,30.41,0,0,1,267.36,12a20.65,20.65,0,0,1,4.1-7.29A18,18,0,0,1,277.88.06,22.52,22.52,0,0,1,294.37,0a16.79,16.79,0,0,1,6.16,4.41,19.39,19.39,0,0,1,3.85,7,29.78,29.78,0,0,1,1.32,9.14,27.71,27.71,0,0,1-1.51,9.29A21.45,21.45,0,0,1,300,37.05a19.38,19.38,0,0,1-6.54,4.76A20.45,20.45,0,0,1,285,43.53a17.63,17.63,0,0,1-14.11-5.7Q265.95,32.13,266,21.49ZM286,3.78q-12.83,0-12.83,17.21T285.36,38.2a11.58,11.58,0,0,0,9.7-4.38q3.45-4.38,3.45-13.14Q298.5,3.77,286,3.78Z"/><path id="Path_26" data-name="Path 26" class="cls-1" d="M368,42.9,347.37,8.41V37.89l5.95,1.25v3.77h-16.9V39.14l5.32-1.25V4.09l-5.32-1.25V-.6l13.14-.32,20.66,35v-30L364.9,2.84V-.6l16.27-.32V2.85L375.85,4.1V42.9Z"/><path id="Path_27" data-name="Path 27" class="cls-1" d="M419.42,30.07l1.26,6.57a12.84,12.84,0,0,0,3.06,1.09,15.86,15.86,0,0,0,3.82.47,13.45,13.45,0,0,0,3.63-.47,10.13,10.13,0,0,0,3.07-1.34,7.25,7.25,0,0,0,2.1-2.1,5.08,5.08,0,0,0,.79-2.79,4.63,4.63,0,0,0-1-3,9.21,9.21,0,0,0-2.6-2.13,20.59,20.59,0,0,0-3.6-1.58c-1.34-.46-2.69-.94-4.07-1.45s-2.87-1.26-4.22-1.91A15,15,0,0,1,418,19a10.26,10.26,0,0,1-2.54-3.41,13.12,13.12,0,0,1,.28-10.39A11.12,11.12,0,0,1,419,1.41a13.78,13.78,0,0,1,4.75-2.22,22.17,22.17,0,0,1,5.73-.72,24.18,24.18,0,0,1,2.94.19c1,.12,2.06.28,3.07.47s1.94.4,2.81.62l2.26.6,2,.62-.31,10.64h-4.07l-2.13-6.69a21.61,21.61,0,0,0-3.47-.82,24.69,24.69,0,0,0-3.54-.25,11,11,0,0,0-3.28.47,7.87,7.87,0,0,0-2.51,1.29,6.13,6.13,0,0,0-1.59,1.81,4.17,4.17,0,0,0-.57,2.06,5.42,5.42,0,0,0,1.76,4.14,15.12,15.12,0,0,0,4.19,2.56q2.51,1.07,5.41,2a28.94,28.94,0,0,1,5.38,2.35A13.34,13.34,0,0,1,442,24.19a9.71,9.71,0,0,1,1.65,5.89,12.63,12.63,0,0,1-1.25,5.76A12.14,12.14,0,0,1,439,40.06a15.43,15.43,0,0,1-5.19,2.63,22.39,22.39,0,0,1-6.45.91,26.76,26.76,0,0,1-3-.19c-1.07-.12-2.11-.28-3.13-.47s-2-.39-2.85-.62-1.61-.45-2.18-.66L414.43,41v-11Z"/><path id="Path_28" data-name="Path 28" class="cls-1" d="M496.38,39.14v3.77H479.17V39.14l5.32-1.25V4.09l-5.32-1.25V-.6l17.21-.32V2.85L491.06,4.1V37.89Z"/><path id="Path_29" data-name="Path 29" class="cls-1" d="M546.55,42.9,533.22,4.09,528.4,2.84V-.6l17.53-.32V2.85L540.23,4l9.83,30.41L560.51,4.1l-5.82-1.25V-.6l16.9-.31V2.85l-4.88,1.26-13.9,38.8Z"/><path id="Path_30" data-name="Path 30" class="cls-1" d="M624.26,4.09H610.81V17.55H625.2v5H610.81V37.89H625.2l1.25-6.26h4.07V42.9H598.91V39.13l5.32-1.25V4.09l-5.32-1.25V-.6L610.8-.92h19.09V9.72h-4.07Z"/><path class="cls-1" d="M18.31,4.38c2.2,0,7.77,1,7.77,7.46,0,1.87-.84,7.46-9.62,7.46H11.8V10.55L5.28,9.1V37.94L0,39.18v3.73H17.09V39.16l-5.28-1.25v-14h1.9c6.55,0,8,4.64,9.52,8,1.28,2.77,5,11,5,11h9.32V39.16l-4.43-1c-.33.2-6.66-14.87-8.63-15.47a11.42,11.42,0,0,0,8.08-10.86c0-10-9.25-12.44-14-12.44H0V1.75L11.8,4.38Z"/><path class="cls-1" d="M218.7,26.62a20.73,20.73,0,0,0,12.49-3.75,14.51,14.51,0,0,0,4.41-11,12.23,12.23,0,0,0-3.71-9.38A16.2,16.2,0,0,0,221.22-.92l-18.46,0V2.84l2.87.68.19,0,2.26.53V15.34h0V37.89l-5.32,1.25v3.77H220V39.14l-5.32-1.25V26.62Zm8.22-20.08a9.26,9.26,0,0,1,2.13,6.32q0,8.76-10.33,8.76h-4.07V4.1h6.26A7.69,7.69,0,0,1,226.92,6.54Z"/><rect class="cls-2" x="-0.01" y="86.42" width="364.33" height="1.98"/></svg>