<svg id="Lag_1" data-name="Lag 1" xmlns="http://www.w3.org/2000/svg" viewBox="0 0 565.26 81.41"><defs><style>.cls-1{fill:#f0f4f7;}.cls-2{fill:#678989;}</style></defs><path id="Path_23" data-name="Path 23" class="cls-1" d="M84.63,5.83H72.57V17.9h12.9v4.48H72.57V36.13h12.9l1.12-5.61h3.65v10.1H61.9V37.25l4.77-1.13V5.83L61.9,4.71V1.62l10.66-.28H89.68v9.54H86Z"/><path id="Path_24" data-name="Path 24" class="cls-1" d="M128.21,29.12,129.33,35a10.74,10.74,0,0,0,2.75,1,14.63,14.63,0,0,0,3.42.43,12.42,12.42,0,0,0,3.26-.43,9.21,9.21,0,0,0,2.74-1.21,6.21,6.21,0,0,0,1.88-1.87,4.54,4.54,0,0,0,.71-2.5,4.17,4.17,0,0,0-.9-2.72,8.11,8.11,0,0,0-2.33-1.91,19,19,0,0,0-3.23-1.42c-1.19-.41-2.41-.85-3.64-1.29s-2.58-1.14-3.79-1.72a13.77,13.77,0,0,1-3.26-2.13,9.33,9.33,0,0,1-2.27-3,11.79,11.79,0,0,1,.25-9.32,9.93,9.93,0,0,1,2.92-3.42,12.31,12.31,0,0,1,4.26-2,20.29,20.29,0,0,1,5.14-.65,23.07,23.07,0,0,1,2.63.17c.94.11,1.85.25,2.75.42s1.74.36,2.53.56l2,.54L149,3l-.28,9.54H145l-1.9-6A19.63,19.63,0,0,0,140,5.84a22.42,22.42,0,0,0-3.17-.22A9.47,9.47,0,0,0,133.9,6a7,7,0,0,0-2.25,1.15,5.59,5.59,0,0,0-1.43,1.63,3.64,3.64,0,0,0-.5,1.85,4.82,4.82,0,0,0,1.57,3.7,13.58,13.58,0,0,0,3.76,2.3q2.23,1,4.85,1.8a25.86,25.86,0,0,1,4.83,2.1,11.87,11.87,0,0,1,3.7,3.28,8.78,8.78,0,0,1,1.49,5.28,11.36,11.36,0,0,1-1.13,5.16,11,11,0,0,1-3.08,3.79,14.05,14.05,0,0,1-4.66,2.36,20.18,20.18,0,0,1-5.78.81,21.47,21.47,0,0,1-2.66-.17c-1-.11-1.89-.25-2.81-.42s-1.77-.35-2.55-.56-1.44-.4-2-.59L123.71,39V29.13Z"/><path id="Path_25" data-name="Path 25" class="cls-1" d="M238.42,21.43a27,27,0,0,1,1.27-8.52,18.32,18.32,0,0,1,3.67-6.54,16.1,16.1,0,0,1,5.75-4.15,20.2,20.2,0,0,1,14.79-.06,15.13,15.13,0,0,1,5.53,4,17.42,17.42,0,0,1,3.45,6.23,26.7,26.7,0,0,1,1.17,8.19,24.6,24.6,0,0,1-1.34,8.33,19.2,19.2,0,0,1-3.79,6.51,17.28,17.28,0,0,1-5.86,4.26,18.31,18.31,0,0,1-7.58,1.55,15.8,15.8,0,0,1-12.65-5.11Q238.42,31,238.42,21.43Zm18-15.88q-11.5,0-11.5,15.43t10.94,15.44a10.43,10.43,0,0,0,8.7-3.93q3.09-3.93,3.09-11.79Q267.6,5.55,256.38,5.55Z"/><path id="Path_26" data-name="Path 26" class="cls-1" d="M329.93,40.62,311.42,9.7V36.13l5.33,1.13v3.37H301.6V37.26l4.77-1.13V5.83L301.6,4.71V1.62l11.78-.28L331.9,32.71V5.83l-4.77-1.12V1.62l14.59-.28V4.72L337,5.84V40.63Z"/><path id="Path_27" data-name="Path 27" class="cls-1" d="M376,29.12,377.13,35a10.88,10.88,0,0,0,2.75,1,14.65,14.65,0,0,0,3.43.43,12.35,12.35,0,0,0,3.25-.43,8.91,8.91,0,0,0,2.75-1.21,6.32,6.32,0,0,0,1.88-1.87,4.54,4.54,0,0,0,.71-2.5,4.12,4.12,0,0,0-.9-2.72,8.11,8.11,0,0,0-2.33-1.91,19.22,19.22,0,0,0-3.22-1.42c-1.2-.41-2.42-.85-3.65-1.29s-2.57-1.14-3.79-1.72a13.71,13.71,0,0,1-3.25-2.13,9.36,9.36,0,0,1-2.28-3,11.75,11.75,0,0,1,.26-9.32,9.9,9.9,0,0,1,2.91-3.42,12.36,12.36,0,0,1,4.27-2,20.16,20.16,0,0,1,5.13-.65,23.4,23.4,0,0,1,2.64.17c.93.11,1.85.25,2.75.42s1.74.36,2.52.56l2,.54,1.8.55-.28,9.54h-3.65l-1.91-6a19.26,19.26,0,0,0-3.11-.73,22.42,22.42,0,0,0-3.17-.22,9.84,9.84,0,0,0-3,.42,6.81,6.81,0,0,0-2.24,1.15A5.45,5.45,0,0,0,378,8.82a3.76,3.76,0,0,0-.51,1.85,4.89,4.89,0,0,0,1.57,3.7,13.58,13.58,0,0,0,3.76,2.3q2.25,1,4.86,1.8a25.77,25.77,0,0,1,4.82,2.1,11.79,11.79,0,0,1,3.71,3.28,8.71,8.71,0,0,1,1.48,5.28,11.36,11.36,0,0,1-1.12,5.16,11,11,0,0,1-3.09,3.79,14.1,14.1,0,0,1-4.65,2.36,20.18,20.18,0,0,1-5.78.81,21.75,21.75,0,0,1-2.67-.17c-.95-.11-1.89-.25-2.8-.42s-1.77-.35-2.56-.56-1.44-.4-1.95-.59L371.54,39V29.13Z"/><path id="Path_28" data-name="Path 28" class="cls-1" d="M445,37.26v3.37H429.57V37.26l4.77-1.13V5.83l-4.77-1.12V1.62L445,1.34V4.72l-4.77,1.12V36.13Z"/><path id="Path_29" data-name="Path 29" class="cls-1" d="M490,40.62,478,5.83l-4.32-1.12V1.62l15.71-.28V4.72l-5.11,1.06,8.81,27.27,9.37-27.21-5.22-1.12V1.63l15.15-.28V4.72l-4.37,1.12L495.59,40.63Z"/><path id="Path_30" data-name="Path 30" class="cls-1" d="M559.65,5.83H547.58V17.9h12.91v4.48H547.58V36.13h12.91l1.12-5.61h3.65v10.1H536.92V37.25l4.77-1.13V5.83l-4.77-1.12V1.62l10.66-.28h17.11v9.54h-3.64Z"/><path class="cls-1" d="M16.42,6.09c2,0,7,.86,7,6.69,0,1.67-.75,6.68-8.62,6.68H10.58V11.62l-5.85-1.3V36.17L0,37.29v3.34H15.32V37.27l-4.73-1.12V23.62h1.7c5.87,0,7.16,4.16,8.54,7.16l4.51,9.83H33.7V37.27l-4-.89c-.3.18-6-13.33-7.74-13.87a10.23,10.23,0,0,0,7.24-9.73c0-8.94-8.29-11.15-12.53-11.15H0v2.1L10.58,6.09Z"/><path class="cls-1" d="M196.07,26a18.58,18.58,0,0,0,11.19-3.37,13,13,0,0,0,4-9.81,11,11,0,0,0-3.33-8.42,14.49,14.49,0,0,0-9.56-3.09l-16.55,0v3.4l2.58.61.17,0,2,.47v10.1h0V36.13l-4.77,1.13v3.37H197.2V37.26l-4.77-1.13V26Zm7.36-18a8.31,8.31,0,0,1,1.91,5.67q0,7.86-9.26,7.86h-3.65V5.84H198A6.89,6.89,0,0,1,203.43,8Z"/><rect class="cls-2" x="119.31" y="79.64" width="326.62" height="1.78"/></svg>