<svg id="Lag_1" data-name="Lag 1" xmlns="http://www.w3.org/2000/svg" viewBox="0 0 628.99 89.71"><defs><style>.cls-1{fill:#476a6c;}.cls-2{fill:#678989;}</style></defs><path id="Path_23" data-name="Path 23" class="cls-1" d="M94.18,5.61H80.76V19H95.12v5H80.76v15.3H95.12l1.25-6.25h4.06V44.32H68.9V40.57l5.3-1.25V5.61L68.9,4.36V.93L80.76.61h19V11.23H95.74Z"/><path id="Path_24" data-name="Path 24" class="cls-1" d="M142.67,31.52l1.25,6.56A12.84,12.84,0,0,0,147,39.17a15.77,15.77,0,0,0,3.81.47,13.83,13.83,0,0,0,3.62-.47,10.33,10.33,0,0,0,3.06-1.34,7.3,7.3,0,0,0,2.09-2.09,5,5,0,0,0,.78-2.78,4.61,4.61,0,0,0-1-3,9,9,0,0,0-2.59-2.12,21.31,21.31,0,0,0-3.59-1.59c-1.33-.45-2.68-.93-4.06-1.43s-2.86-1.26-4.21-1.91a15.49,15.49,0,0,1-3.62-2.37,10.33,10.33,0,0,1-2.53-3.4A13.07,13.07,0,0,1,139,6.74a11.11,11.11,0,0,1,3.24-3.8A13.78,13.78,0,0,1,147,.72,22.86,22.86,0,0,1,152.72,0a26,26,0,0,1,2.93.19c1,.13,2.06.28,3.06.47s1.94.4,2.81.62l2.25.6,2,.62-.31,10.61H161.4l-2.13-6.68a22.59,22.59,0,0,0-3.46-.81,24.55,24.55,0,0,0-3.53-.25,11.07,11.07,0,0,0-3.28.47,8.06,8.06,0,0,0-2.49,1.28,6,6,0,0,0-1.59,1.81,4.17,4.17,0,0,0-.57,2.06,5.4,5.4,0,0,0,1.75,4.12,15,15,0,0,0,4.19,2.56q2.49,1.06,5.4,2A29,29,0,0,1,161.05,22a12.91,12.91,0,0,1,4.12,3.66,9.56,9.56,0,0,1,1.66,5.87,12.68,12.68,0,0,1-1.25,5.74,12.44,12.44,0,0,1-3.44,4.22A15.45,15.45,0,0,1,157,44.12a22.15,22.15,0,0,1-6.43.9,26.57,26.57,0,0,1-3-.18c-1.06-.13-2.11-.29-3.13-.47s-2-.4-2.84-.63-1.6-.44-2.18-.65l-1.75-.63V31.54Z"/><path id="Path_25" data-name="Path 25" class="cls-1" d="M265.31,23a30.24,30.24,0,0,1,1.41-9.49,20.45,20.45,0,0,1,4.09-7.27,17.79,17.79,0,0,1,6.4-4.62,22.46,22.46,0,0,1,16.45-.06,16.73,16.73,0,0,1,6.15,4.4,19.44,19.44,0,0,1,3.84,6.93A29.65,29.65,0,0,1,305,22a27.33,27.33,0,0,1-1.5,9.27,21.41,21.41,0,0,1-4.21,7.24,19.45,19.45,0,0,1-6.53,4.75A20.35,20.35,0,0,1,284.29,45a17.53,17.53,0,0,1-14.07-5.68Q265.31,33.58,265.31,23Zm20-17.67q-12.8,0-12.8,17.17t12.18,17.17a11.59,11.59,0,0,0,9.69-4.37q3.42-4.37,3.43-13.11Q297.77,5.3,285.29,5.3Z"/><path id="Path_26" data-name="Path 26" class="cls-1" d="M367.14,44.32l-20.6-34.4V39.33l5.93,1.25v3.75H335.61V40.58l5.31-1.25V5.61l-5.31-1.25V.93L348.72.61l20.61,34.91V5.61L364,4.36V.93L380.25.61V4.37l-5.31,1.25V44.33Z"/><path id="Path_27" data-name="Path 27" class="cls-1" d="M418.41,31.52l1.25,6.56a12.84,12.84,0,0,0,3.06,1.09,15.77,15.77,0,0,0,3.81.47,13.83,13.83,0,0,0,3.62-.47,10.33,10.33,0,0,0,3.06-1.34,7.18,7.18,0,0,0,2.09-2.09,5,5,0,0,0,.79-2.78,4.61,4.61,0,0,0-1-3,9,9,0,0,0-2.59-2.12,21.31,21.31,0,0,0-3.59-1.59c-1.33-.45-2.68-.93-4.06-1.43s-2.86-1.26-4.21-1.91A15.49,15.49,0,0,1,417,20.51a10.33,10.33,0,0,1-2.53-3.4,13.07,13.07,0,0,1,.28-10.37A11.11,11.11,0,0,1,418,2.94,13.78,13.78,0,0,1,422.76.72,22.86,22.86,0,0,1,428.47,0a26,26,0,0,1,2.93.19c1,.13,2.06.28,3.06.47s1.94.4,2.81.62l2.25.6,2,.62-.31,10.61h-4.06L435,6.43a22.71,22.71,0,0,0-3.47-.81A24.55,24.55,0,0,0,428,5.37a11,11,0,0,0-3.27.47,7.8,7.8,0,0,0-2.5,1.28,6,6,0,0,0-1.59,1.81,4.06,4.06,0,0,0-.56,2.06,5.39,5.39,0,0,0,1.74,4.12A15,15,0,0,0,426,17.67q2.49,1.06,5.4,2A29.4,29.4,0,0,1,436.81,22a13.25,13.25,0,0,1,4.12,3.66,9.62,9.62,0,0,1,1.65,5.87,12.68,12.68,0,0,1-1.25,5.74,12.41,12.41,0,0,1-3.43,4.22,15.83,15.83,0,0,1-5.18,2.62,22.25,22.25,0,0,1-6.43.9,26.9,26.9,0,0,1-3-.18c-1.06-.13-2.1-.29-3.12-.47s-2-.4-2.84-.63-1.61-.44-2.18-.65l-1.75-.63V31.54Z"/><path id="Path_28" data-name="Path 28" class="cls-1" d="M495.18,40.58v3.75H478V40.58l5.31-1.25V5.61L478,4.36V.93L495.18.61V4.37l-5.31,1.25V39.33Z"/><path id="Path_29" data-name="Path 29" class="cls-1" d="M545.23,44.32,531.93,5.61l-4.81-1.25V.93L544.6.61V4.37l-5.68,1.19,9.8,30.34L559.15,5.62l-5.81-1.25V.94L570.2.62V4.38l-4.87,1.25L551.47,44.34Z"/><path id="Path_30" data-name="Path 30" class="cls-1" d="M622.75,5.61H609.32V19h14.37v5H609.32v15.3h14.37l1.24-6.25H629V44.32H597.46V40.57l5.31-1.25V5.61l-5.31-1.25V.93L609.32.61h19V11.23H624.3Z"/><path class="cls-1" d="M18.28,5.9c2.19,0,7.75.95,7.75,7.44,0,1.86-.84,7.44-9.59,7.44H11.79V12.05L5.28,10.6V39.37L0,40.61v3.72h17V40.59l-5.27-1.24v-14h1.9c6.53,0,8,4.63,9.5,8l5,10.94h9.29V40.59l-4.41-1c-.33.2-6.65-14.84-8.62-15.44a11.39,11.39,0,0,0,8.06-10.83C32.54,3.4,23.31.93,18.59.93H0V3.27L11.79,5.9Z"/><path class="cls-1" d="M218.18,28.09a20.66,20.66,0,0,0,12.45-3.75A14.44,14.44,0,0,0,235,13.42a12.21,12.21,0,0,0-3.71-9.37A16.14,16.14,0,0,0,220.69.62l-18.42,0V4.36l2.87.68.19,0,2.25.53V16.83h0V39.33l-5.3,1.25v3.75h17.17V40.58l-5.31-1.25V28.09Zm8.2-20a9.27,9.27,0,0,1,2.12,6.31q0,8.73-10.3,8.74h-4.06V5.62h6.24A7.69,7.69,0,0,1,226.38,8.05Z"/><rect class="cls-2" x="132.78" y="87.74" width="363.44" height="1.98"/></svg>