<svg id="Lag_1" data-name="Lag 1" xmlns="http://www.w3.org/2000/svg" viewBox="0 0 615.33 87.77"><defs><style>.cls-1{fill:#f0f4f7;}.cls-2{fill:#c8443c;}</style></defs><path id="Path_23" data-name="Path 23" class="cls-1" d="M92.13,5.49H79V18.62H93v4.89H79v15H93l1.22-6.11h4v11H67.39V39.69l5.19-1.23v-33L67.39,4.27V.91L79,.6H97.62V11h-4Z"/><path id="Path_24" data-name="Path 24" class="cls-1" d="M139.56,30.84l1.22,6.41a11.94,11.94,0,0,0,3,1.07,15.53,15.53,0,0,0,3.72.46,13.72,13.72,0,0,0,3.55-.46A10,10,0,0,0,154,37a7.12,7.12,0,0,0,2-2,4.94,4.94,0,0,0,.77-2.72,4.54,4.54,0,0,0-1-3,9.05,9.05,0,0,0-2.53-2.08,20.75,20.75,0,0,0-3.52-1.54c-1.3-.45-2.62-.92-4-1.41s-2.8-1.23-4.12-1.86a15.45,15.45,0,0,1-3.54-2.32,10.15,10.15,0,0,1-2.48-3.33A12.77,12.77,0,0,1,136,6.6a11,11,0,0,1,3.17-3.73A13.79,13.79,0,0,1,143.8.7a22.48,22.48,0,0,1,5.59-.7,25,25,0,0,1,2.87.19c1,.12,2,.27,3,.46s1.89.38,2.74.61l2.2.58,2,.6-.31,10.39h-4L155.8,6.29a21.67,21.67,0,0,0-3.39-.79A23.31,23.31,0,0,0,149,5.26a10.56,10.56,0,0,0-3.21.45A7.81,7.81,0,0,0,143.31,7a5.85,5.85,0,0,0-1.55,1.77,3.94,3.94,0,0,0-.55,2,5.26,5.26,0,0,0,1.71,4A14.73,14.73,0,0,0,147,17.29q2.44,1,5.28,1.95a28.2,28.2,0,0,1,5.25,2.29,13,13,0,0,1,4,3.58,9.44,9.44,0,0,1,1.61,5.74A12.41,12.41,0,0,1,162,36.47a11.89,11.89,0,0,1-3.36,4.12,15.09,15.09,0,0,1-5.07,2.57,21.58,21.58,0,0,1-6.29.88,23.4,23.4,0,0,1-2.9-.18c-1-.12-2.06-.27-3-.46s-1.93-.38-2.78-.61-1.57-.43-2.14-.64l-1.71-.61V30.85Z"/><path id="Path_25" data-name="Path 25" class="cls-1" d="M259.54,22.47a29.49,29.49,0,0,1,1.38-9.28,20,20,0,0,1,4-7.11,17.35,17.35,0,0,1,6.26-4.52,21.92,21.92,0,0,1,16.09-.06,16.44,16.44,0,0,1,6,4.3,19.09,19.09,0,0,1,3.76,6.78,29,29,0,0,1,1.28,8.92,26.94,26.94,0,0,1-1.47,9.07,20.88,20.88,0,0,1-4.12,7.09,19,19,0,0,1-6.38,4.64A20,20,0,0,1,278.11,44a17.23,17.23,0,0,1-13.77-5.56Q259.54,32.86,259.54,22.47ZM279.09,5.19q-12.52,0-12.52,16.79t11.91,16.8A11.33,11.33,0,0,0,288,34.5q3.36-4.28,3.36-12.82Q291.31,5.18,279.09,5.19Z"/><path id="Path_26" data-name="Path 26" class="cls-1" d="M359.16,43.36,339,9.7V38.47l5.8,1.23v3.67H328.31V39.7l5.19-1.23v-33l-5.19-1.22V.91L341.14.6,361.3,34.75V5.49l-5.2-1.22V.91L372,.6V4.28L366.79,5.5V43.37Z"/><path id="Path_27" data-name="Path 27" class="cls-1" d="M409.32,30.84l1.22,6.41a11.73,11.73,0,0,0,3,1.07,15.61,15.61,0,0,0,3.73.46,13.7,13.7,0,0,0,3.54-.46,10,10,0,0,0,3-1.31,7,7,0,0,0,2-2,4.86,4.86,0,0,0,.77-2.72,4.53,4.53,0,0,0-1-3,9,9,0,0,0-2.54-2.08,20.65,20.65,0,0,0-3.51-1.54c-1.31-.45-2.63-.92-4-1.41s-2.8-1.23-4.13-1.86A15.67,15.67,0,0,1,408,20.07a10.12,10.12,0,0,1-2.47-3.33,12.81,12.81,0,0,1,.27-10.14,10.89,10.89,0,0,1,3.18-3.73A13.7,13.7,0,0,1,413.57.7a22.36,22.36,0,0,1,5.59-.7A25.15,25.15,0,0,1,422,.19c1,.12,2,.27,3,.46s1.9.38,2.75.61l2.2.58,1.95.6-.3,10.39h-4l-2.08-6.54a21.67,21.67,0,0,0-3.39-.79,23.44,23.44,0,0,0-3.45-.24,10.56,10.56,0,0,0-3.21.45A7.76,7.76,0,0,0,413.08,7a6,6,0,0,0-1.56,1.77,4.18,4.18,0,0,0-.55,2,5.33,5.33,0,0,0,1.71,4,14.63,14.63,0,0,0,4.1,2.51q2.43,1,5.28,1.95a28.79,28.79,0,0,1,5.25,2.29,12.93,12.93,0,0,1,4,3.58A9.38,9.38,0,0,1,433,30.85a12.41,12.41,0,0,1-1.22,5.62,11.89,11.89,0,0,1-3.36,4.12,15.09,15.09,0,0,1-5.07,2.57A21.58,21.58,0,0,1,417,44a23.4,23.4,0,0,1-2.9-.18c-1-.12-2.06-.27-3.05-.46s-1.93-.38-2.79-.61a21.83,21.83,0,0,1-2.12-.64l-1.71-.61V30.85Z"/><path id="Path_28" data-name="Path 28" class="cls-1" d="M484.42,39.7v3.67h-16.8V39.7l5.19-1.23v-33l-5.19-1.22V.91L484.42.6V4.28L479.23,5.5v33Z"/><path id="Path_29" data-name="Path 29" class="cls-1" d="M533.38,43.36l-13-37.87-4.7-1.22V.91L532.77.6V4.28l-5.56,1.16,9.59,29.68L547,5.5l-5.68-1.23V.91l16.49-.3V4.28L553.05,5.5,539.49,43.37Z"/><path id="Path_30" data-name="Path 30" class="cls-1" d="M609.22,5.49H596.09V18.62h14v4.89h-14v15h14l1.22-6.11h4v11H584.48V39.69l5.19-1.23v-33l-5.19-1.22V.91L596.08.6h18.63V11h-4Z"/><path class="cls-1" d="M17.87,5.77c2.15,0,7.58.94,7.58,7.28,0,1.82-.82,7.28-9.38,7.28H11.52V11.79L5.15,10.37V38.52L0,39.73v3.64H16.68V39.71L11.52,38.5V24.85h1.86c6.39,0,7.79,4.53,9.29,7.8l4.92,10.7h9.09V39.71l-4.31-1c-.33.19-6.51-14.52-8.43-15.1a11.15,11.15,0,0,0,7.88-10.6c0-9.73-9-12.14-13.64-12.14H0V3.2L11.52,5.77Z"/><path class="cls-1" d="M213.43,27.48a20.19,20.19,0,0,0,12.19-3.67,14.13,14.13,0,0,0,4.3-10.69A12,12,0,0,0,226.3,4,15.79,15.79,0,0,0,215.89.6l-18,0v3.7l2.81.66.18,0,2.2.52v11h0v22l-5.19,1.23v3.67h16.8V39.7l-5.19-1.23v-11Zm8-19.6A9.07,9.07,0,0,1,223.53,14q0,8.57-10.08,8.55h-4V5.49h6.1A7.52,7.52,0,0,1,221.45,7.88Z"/><rect class="cls-2" x="129.88" y="85.83" width="355.55" height="1.93"/></svg>