<svg id="Lag_1" data-name="Lag 1" xmlns="http://www.w3.org/2000/svg" viewBox="0 0 630.54 89.93"><defs><style>.cls-1{fill:#f0f4f7;}.cls-2{fill:#c3c6c7;}</style></defs><path id="Path_23" data-name="Path 23" class="cls-1" d="M94.42,5.63H81V19.08H95.35v5H81V39.42H95.35l1.25-6.26h4.07V44.43H69.07V40.67l5.32-1.26V5.63L69.07,4.37V.93L81,.62H100V11.26H96Z"/><path id="Path_24" data-name="Path 24" class="cls-1" d="M143,31.6l1.25,6.57a12.37,12.37,0,0,0,3.07,1.1,16.37,16.37,0,0,0,3.82.47,14.35,14.35,0,0,0,3.63-.47,10.35,10.35,0,0,0,3.06-1.35,7,7,0,0,0,2.1-2.1,5.07,5.07,0,0,0,.79-2.78,4.65,4.65,0,0,0-1-3,9.2,9.2,0,0,0-2.59-2.13,22.59,22.59,0,0,0-3.6-1.58c-1.34-.46-2.69-.94-4.07-1.44s-2.87-1.26-4.23-1.91a15.8,15.8,0,0,1-3.63-2.38,10.37,10.37,0,0,1-2.53-3.41,13.08,13.08,0,0,1,.28-10.39,11.19,11.19,0,0,1,3.25-3.82A14,14,0,0,1,147.37.72,23,23,0,0,1,153.1,0,26.38,26.38,0,0,1,156,.19c1,.13,2.06.28,3.06.47s1.94.4,2.82.63l2.25.59,2,.62-.31,10.64h-4.07l-2.12-6.69a20.91,20.91,0,0,0-3.48-.81,23.19,23.19,0,0,0-3.53-.25,10.48,10.48,0,0,0-3.29.47,7.7,7.7,0,0,0-2.5,1.28A6.16,6.16,0,0,0,145.27,9a4.17,4.17,0,0,0-.56,2.07,5.44,5.44,0,0,0,1.75,4.13,15.45,15.45,0,0,0,4.19,2.57c1.67.71,3.48,1.37,5.42,2a28.58,28.58,0,0,1,5.38,2.35,13.05,13.05,0,0,1,4.13,3.66,9.67,9.67,0,0,1,1.66,5.88A12.73,12.73,0,0,1,166,37.37a12.41,12.41,0,0,1-3.45,4.23,15.59,15.59,0,0,1-5.19,2.62,22,22,0,0,1-6.45.91,24.66,24.66,0,0,1-3-.18c-1.06-.13-2.11-.29-3.13-.47s-2-.4-2.85-.63-1.6-.45-2.19-.66L138,42.57V31.62Z"/><path id="Path_25" data-name="Path 25" class="cls-1" d="M266,23a30,30,0,0,1,1.4-9.51,20.63,20.63,0,0,1,4.1-7.29,17.77,17.77,0,0,1,6.42-4.63,22.52,22.52,0,0,1,16.49-.07,16.94,16.94,0,0,1,6.17,4.41,19.63,19.63,0,0,1,3.85,7A29.77,29.77,0,0,1,305.71,22a27.45,27.45,0,0,1-1.5,9.29A21.59,21.59,0,0,1,300,38.59a19.48,19.48,0,0,1-6.54,4.75A20.29,20.29,0,0,1,285,45.06a17.62,17.62,0,0,1-14.11-5.69Q266,33.67,266,23ZM286,5.31q-12.83,0-12.83,17.21t12.21,17.22a11.66,11.66,0,0,0,9.71-4.38q3.44-4.38,3.44-13.15Q298.51,5.31,286,5.31Z"/><path id="Path_26" data-name="Path 26" class="cls-1" d="M368,44.43,347.39,9.94V39.42l5.94,1.26v3.76h-16.9V40.68l5.32-1.26V5.63l-5.32-1.26V.93L349.58.62l20.65,35v-30l-5.32-1.26V.93L381.18.62V4.38l-5.32,1.25V44.44Z"/><path id="Path_27" data-name="Path 27" class="cls-1" d="M419.44,31.6l1.25,6.57a12.37,12.37,0,0,0,3.07,1.1,16.37,16.37,0,0,0,3.82.47,14.41,14.41,0,0,0,3.63-.47,10.35,10.35,0,0,0,3.06-1.35,7,7,0,0,0,2.1-2.1,5,5,0,0,0,.79-2.78,4.64,4.64,0,0,0-1-3,9.38,9.38,0,0,0-2.6-2.13,21.37,21.37,0,0,0-3.6-1.58c-1.33-.46-2.69-.94-4.06-1.44s-2.87-1.26-4.23-1.91A15.58,15.58,0,0,1,418,20.56a10.54,10.54,0,0,1-2.54-3.41,13.08,13.08,0,0,1,.29-10.39A11.19,11.19,0,0,1,419,2.94,14,14,0,0,1,423.79.72,23.07,23.07,0,0,1,429.52,0a26.22,26.22,0,0,1,2.94.19c1.05.13,2.07.28,3.07.47s1.94.4,2.82.63l2.25.59,2,.62-.31,10.64h-4.07L436.1,6.45a20.91,20.91,0,0,0-3.48-.81,23.19,23.19,0,0,0-3.53-.25,10.44,10.44,0,0,0-3.29.47,7.7,7.7,0,0,0-2.5,1.28A6.16,6.16,0,0,0,421.7,9a4.17,4.17,0,0,0-.56,2.07,5.44,5.44,0,0,0,1.75,4.13,15.3,15.3,0,0,0,4.19,2.57c1.67.71,3.47,1.37,5.42,2a28.58,28.58,0,0,1,5.38,2.35A13.05,13.05,0,0,1,442,25.73a9.74,9.74,0,0,1,1.66,5.88,12.73,12.73,0,0,1-1.25,5.76A12.41,12.41,0,0,1,439,41.6a15.59,15.59,0,0,1-5.19,2.62,22,22,0,0,1-6.45.91,24.66,24.66,0,0,1-3-.18c-1.06-.13-2.11-.29-3.13-.47s-2-.4-2.85-.63-1.61-.45-2.18-.66l-1.75-.62V31.62Z"/><path id="Path_28" data-name="Path 28" class="cls-1" d="M496.39,40.68v3.76H479.18V40.68l5.32-1.26V5.63l-5.32-1.26V.93L496.39.62V4.38l-5.32,1.25V39.42Z"/><path id="Path_29" data-name="Path 29" class="cls-1" d="M546.57,44.43,533.23,5.63l-4.81-1.26V.93L545.94.62V4.38l-5.69,1.19L550.07,36,560.52,5.63,554.7,4.38V.94L571.6.62V4.39l-4.88,1.25-13.9,38.8Z"/><path id="Path_30" data-name="Path 30" class="cls-1" d="M624.28,5.63H610.82V19.08h14.4v5h-14.4V39.42h14.4l1.25-6.26h4.07V44.43H598.93V40.67l5.32-1.26V5.63l-5.32-1.26V.93L610.82.62h19.09V11.26h-4.07Z"/><path class="cls-1" d="M18.33,5.91c2.19,0,7.77,1,7.77,7.46,0,1.87-.84,7.46-9.62,7.46H11.82V12.08L5.29,10.63V39.47L0,40.71v3.73H17.1V40.69l-5.28-1.24v-14h1.91c6.54,0,8,4.64,9.52,8,1.27,2.78,5,11,5,11H37.6V40.69l-4.42-1c-.33.2-6.67-14.87-8.64-15.47a11.42,11.42,0,0,0,8.08-10.86c0-10-9.25-12.44-14-12.44H0V3.28L11.82,5.91Z"/><path class="cls-1" d="M218.72,28.16A20.69,20.69,0,0,0,231.2,24.4a14.47,14.47,0,0,0,4.41-10.95,12.24,12.24,0,0,0-3.71-9.39A16.17,16.17,0,0,0,221.23.62l-18.46,0v3.8l2.88.67.19,0,2.25.53V16.87h0V39.42l-5.32,1.26v3.76H220V40.68l-5.32-1.26V28.16Zm8.21-20.09a9.26,9.26,0,0,1,2.13,6.32q0,8.76-10.33,8.76h-4.07V5.63h6.26A7.68,7.68,0,0,1,226.93,8.07Z"/><rect class="cls-2" x="133.1" y="87.95" width="364.33" height="1.98"/></svg>