<svg id="Lag_1" data-name="Lag 1" xmlns="http://www.w3.org/2000/svg" viewBox="0 0 630.54 93.58"><defs><style>.cls-1{fill:#26424f;}.cls-2{fill:#c8443c;}</style></defs><path id="Path_23" data-name="Path 23" class="cls-1" d="M94.42,9.27H81V22.73H95.35v5H81V43.07H95.35l1.25-6.26h4.07V48.08H69.07V44.31l5.32-1.25V9.27L69.07,8V4.58L81,4.26h19V14.9H96Z"/><path id="Path_24" data-name="Path 24" class="cls-1" d="M143,35.25l1.25,6.57a13.2,13.2,0,0,0,3.07,1.09,16.37,16.37,0,0,0,3.82.47,13.85,13.85,0,0,0,3.63-.47,10.33,10.33,0,0,0,3.06-1.34,7.13,7.13,0,0,0,2.1-2.1,5.13,5.13,0,0,0,.79-2.79,4.64,4.64,0,0,0-1-3,8.87,8.87,0,0,0-2.59-2.13,20.59,20.59,0,0,0-3.6-1.58c-1.34-.46-2.69-.94-4.07-1.45s-2.87-1.26-4.23-1.91a15.83,15.83,0,0,1-3.62-2.43,10.47,10.47,0,0,1-2.53-3.41,13.08,13.08,0,0,1,.28-10.39,11,11,0,0,1,3.25-3.82,13.65,13.65,0,0,1,4.76-2.22,21.75,21.75,0,0,1,5.73-.72,22.33,22.33,0,0,1,2.94.19c1,.12,2.06.28,3.06.47s1.94.4,2.82.62l2.25.6,2,.62-.31,10.64h-4.07l-2.12-6.69a20.94,20.94,0,0,0-3.48-.82A23.19,23.19,0,0,0,152.66,9a10.82,10.82,0,0,0-3.29.47,7.73,7.73,0,0,0-2.5,1.29,6,6,0,0,0-1.6,1.81,4.11,4.11,0,0,0-.56,2.06,5.47,5.47,0,0,0,1.75,4.14,15.66,15.66,0,0,0,4.19,2.56c1.67.71,3.47,1.38,5.42,2a28.58,28.58,0,0,1,5.38,2.35,13.16,13.16,0,0,1,4.13,3.66,9.68,9.68,0,0,1,1.66,5.89A12.75,12.75,0,0,1,166,41a12.37,12.37,0,0,1-3.45,4.22,15.62,15.62,0,0,1-5.19,2.63,22.69,22.69,0,0,1-6.45.91c-1,0-2-.08-3-.19s-2.11-.28-3.13-.47-2-.39-2.85-.62-1.6-.45-2.19-.66L138,46.18v-11Z"/><path id="Path_25" data-name="Path 25" class="cls-1" d="M266,26.67a30,30,0,0,1,1.4-9.51,20.63,20.63,0,0,1,4.1-7.29,17.9,17.9,0,0,1,6.39-4.63,22.47,22.47,0,0,1,16.49-.06,16.74,16.74,0,0,1,6.17,4.41,19.52,19.52,0,0,1,3.85,7,29.77,29.77,0,0,1,1.31,9.14,27.45,27.45,0,0,1-1.5,9.29A21.64,21.64,0,0,1,300,42.23,19.51,19.51,0,0,1,293.46,47,20.69,20.69,0,0,1,285,48.71,17.66,17.66,0,0,1,270.89,43Q266,37.31,266,26.67ZM286,9q-12.83,0-12.83,17.21t12.2,17.21A11.66,11.66,0,0,0,295.08,39q3.44-4.38,3.44-13.14Q298.51,8.94,286,9Z"/><path id="Path_26" data-name="Path 26" class="cls-1" d="M368,48.08,347.39,13.59V43.07l5.94,1.25v3.77h-16.9V44.32l5.32-1.25V9.27L336.43,8V4.58l13.15-.32,20.65,35v-30L364.91,8V4.58l16.27-.32V8l-5.32,1.25v38.8Z"/><path id="Path_27" data-name="Path 27" class="cls-1" d="M419.44,35.25l1.25,6.57a13.2,13.2,0,0,0,3.07,1.09,16.37,16.37,0,0,0,3.82.47,13.85,13.85,0,0,0,3.63-.47,10.33,10.33,0,0,0,3.06-1.34,7.13,7.13,0,0,0,2.1-2.1,5,5,0,0,0,.79-2.79,4.59,4.59,0,0,0-1-3,9,9,0,0,0-2.6-2.13A20.59,20.59,0,0,0,430,30c-1.33-.46-2.69-.94-4.06-1.45s-2.87-1.26-4.23-1.91A15.5,15.5,0,0,1,418,24.18a10.75,10.75,0,0,1-2.54-3.41,13.08,13.08,0,0,1,.29-10.39A11,11,0,0,1,419,6.59a13.6,13.6,0,0,1,4.75-2.22,21.75,21.75,0,0,1,5.73-.72,22.33,22.33,0,0,1,2.94.19c1.05.12,2.07.28,3.07.47s1.94.4,2.82.62l2.25.6,2,.62-.31,10.64h-4.07L436.1,10.1a20.94,20.94,0,0,0-3.48-.82A23.19,23.19,0,0,0,429.09,9a10.52,10.52,0,0,0-3.29.47,7.73,7.73,0,0,0-2.5,1.29,6,6,0,0,0-1.6,1.81,4.11,4.11,0,0,0-.56,2.06,5.47,5.47,0,0,0,1.75,4.14,15.51,15.51,0,0,0,4.19,2.56c1.67.71,3.47,1.38,5.42,2a28.58,28.58,0,0,1,5.38,2.35A13.13,13.13,0,0,1,442,29.37a9.77,9.77,0,0,1,1.66,5.89A12.76,12.76,0,0,1,442.41,41,12.35,12.35,0,0,1,439,45.24a15.62,15.62,0,0,1-5.19,2.63,22.69,22.69,0,0,1-6.45.91c-1,0-2-.08-3-.19s-2.11-.28-3.13-.47-2-.39-2.85-.62-1.61-.45-2.18-.66l-1.75-.66v-11Z"/><path id="Path_28" data-name="Path 28" class="cls-1" d="M496.39,44.32v3.77H479.18V44.32l5.32-1.25V9.27L479.18,8V4.58l17.21-.32V8l-5.32,1.25V43.07Z"/><path id="Path_29" data-name="Path 29" class="cls-1" d="M546.57,48.08,533.23,9.27,528.42,8V4.58l17.52-.32V8l-5.69,1.15,9.82,30.41L560.52,9.28,554.7,8V4.58l16.9-.31V8l-4.88,1.26-13.9,38.8Z"/><path id="Path_30" data-name="Path 30" class="cls-1" d="M624.28,9.27H610.82V22.73h14.4v5h-14.4V43.07h14.4l1.25-6.26h4.07V48.08H598.93V44.31l5.32-1.25V9.27L598.93,8V4.58l11.89-.32h19.09V14.9h-4.07Z"/><path class="cls-1" d="M18.33,9.56c2.19,0,7.77,1,7.77,7.46,0,1.87-.84,7.46-9.62,7.46H11.82V15.73L5.29,14.28V43.12L0,44.36v3.73H17.1V44.34l-5.28-1.25v-14h1.91c6.54,0,8,4.64,9.52,8l5,11H37.6V44.34l-4.42-1c-.33.2-6.67-14.87-8.64-15.47A11.44,11.44,0,0,0,32.62,17c0-10-9.25-12.44-14-12.44H0V6.93L11.82,9.56Z"/><path class="cls-1" d="M218.72,31.8a20.74,20.74,0,0,0,12.48-3.75,14.49,14.49,0,0,0,4.41-11,12.21,12.21,0,0,0-3.71-9.38,16.13,16.13,0,0,0-10.67-3.41H202.77V8l2.88.68h.19l2.25.53V20.52h0V43.07l-5.32,1.25v3.77H220V44.32l-5.32-1.25V31.8Zm8.21-20.08A9.24,9.24,0,0,1,229.06,18q0,8.76-10.33,8.76h-4.07V9.28h6.26a7.62,7.62,0,0,1,6,2.44Z"/><rect class="cls-2" x="133.1" y="91.6" width="364.33" height="1.98"/></svg>