<svg id="Lag_1" data-name="Lag 1" xmlns="http://www.w3.org/2000/svg" viewBox="0 0 630.52 89.93"><defs><style>.cls-1{fill:#26424f;}.cls-2{fill:#c3c6c7;}</style></defs><path id="Path_23" data-name="Path 23" class="cls-1" d="M94.4,5.63H80.94V19.08h14.4v5H80.94V39.42h14.4l1.25-6.26h4.07V44.43H69.05V40.67l5.32-1.26V5.63L69.05,4.37V.93L80.94.62H100V11.26H96Z"/><path id="Path_24" data-name="Path 24" class="cls-1" d="M143,31.6l1.25,6.57a12.37,12.37,0,0,0,3.07,1.1,16.35,16.35,0,0,0,3.81.47,14.42,14.42,0,0,0,3.64-.47,10.47,10.47,0,0,0,3.06-1.35,7.13,7.13,0,0,0,2.1-2.1,5,5,0,0,0,.78-2.78,4.64,4.64,0,0,0-1-3,9.38,9.38,0,0,0-2.6-2.13,22.2,22.2,0,0,0-3.6-1.58c-1.33-.46-2.69-.94-4.06-1.44s-2.87-1.26-4.23-1.91a15.38,15.38,0,0,1-3.63-2.38,10.37,10.37,0,0,1-2.53-3.41,13,13,0,0,1,.28-10.39,11.19,11.19,0,0,1,3.25-3.82A13.92,13.92,0,0,1,147.36.72,23,23,0,0,1,153.08,0,26.22,26.22,0,0,1,156,.19c1,.13,2.07.28,3.07.47s1.94.4,2.82.63l2.25.59,2,.62-.31,10.64h-4.07l-2.13-6.69a20.57,20.57,0,0,0-3.47-.81,23.23,23.23,0,0,0-3.54-.25,10.42,10.42,0,0,0-3.28.47,7.65,7.65,0,0,0-2.51,1.28A6.13,6.13,0,0,0,145.26,9a4.18,4.18,0,0,0-.57,2.07,5.41,5.41,0,0,0,1.76,4.13,15.3,15.3,0,0,0,4.19,2.57c1.67.71,3.47,1.37,5.41,2a28.67,28.67,0,0,1,5.39,2.35,13.16,13.16,0,0,1,4.13,3.66,9.74,9.74,0,0,1,1.66,5.88A12.74,12.74,0,0,1,166,37.37a12.26,12.26,0,0,1-3.44,4.23,15.55,15.55,0,0,1-5.2,2.62,21.94,21.94,0,0,1-6.44.91,24.54,24.54,0,0,1-3-.18c-1.07-.13-2.11-.29-3.13-.47s-2-.4-2.85-.63-1.61-.45-2.19-.66L138,42.57V31.62Z"/><path id="Path_25" data-name="Path 25" class="cls-1" d="M266,23a30.32,30.32,0,0,1,1.41-9.51,20.47,20.47,0,0,1,4.1-7.29,17.77,17.77,0,0,1,6.42-4.63,22.52,22.52,0,0,1,16.49-.07,16.91,16.91,0,0,1,6.16,4.41,19.48,19.48,0,0,1,3.85,7A29.78,29.78,0,0,1,305.7,22a27.71,27.71,0,0,1-1.51,9.29A21.4,21.4,0,0,1,300,38.59a19.48,19.48,0,0,1-6.54,4.75A20.29,20.29,0,0,1,285,45.06a17.62,17.62,0,0,1-14.11-5.69Q265.95,33.67,266,23ZM286,5.31q-12.83,0-12.83,17.21t12.21,17.22a11.63,11.63,0,0,0,9.7-4.38q3.45-4.38,3.45-13.15Q298.5,5.31,286,5.31Z"/><path id="Path_26" data-name="Path 26" class="cls-1" d="M368,44.43,347.37,9.94V39.42l5.95,1.26v3.76h-16.9V40.68l5.32-1.26V5.63l-5.32-1.26V.93L349.56.62l20.66,35v-30L364.9,4.37V.93L381.17.62V4.38l-5.32,1.25V44.44Z"/><path id="Path_27" data-name="Path 27" class="cls-1" d="M419.42,31.6l1.26,6.57a12.44,12.44,0,0,0,3.06,1.1,16.37,16.37,0,0,0,3.82.47,14.29,14.29,0,0,0,3.63-.47,10.41,10.41,0,0,0,3.07-1.35,7.13,7.13,0,0,0,2.1-2.1,5.07,5.07,0,0,0,.79-2.78,4.64,4.64,0,0,0-1-3,9.38,9.38,0,0,0-2.6-2.13,21.37,21.37,0,0,0-3.6-1.58c-1.34-.46-2.69-.94-4.07-1.44s-2.87-1.26-4.22-1.91A15.38,15.38,0,0,1,418,20.56a10.26,10.26,0,0,1-2.54-3.41,13.12,13.12,0,0,1,.28-10.39A11.21,11.21,0,0,1,419,2.94,14,14,0,0,1,423.78.72,23.07,23.07,0,0,1,429.51,0a26.38,26.38,0,0,1,2.94.19c1,.13,2.06.28,3.07.47s1.94.4,2.81.63l2.26.59,2,.62-.31,10.64h-4.07l-2.13-6.69a20.57,20.57,0,0,0-3.47-.81,23.32,23.32,0,0,0-3.54-.25,10.42,10.42,0,0,0-3.28.47,7.65,7.65,0,0,0-2.51,1.28A6.13,6.13,0,0,0,421.69,9a4.18,4.18,0,0,0-.57,2.07,5.41,5.41,0,0,0,1.76,4.13,15.15,15.15,0,0,0,4.19,2.57c1.67.71,3.47,1.37,5.41,2a28.3,28.3,0,0,1,5.38,2.35A13.09,13.09,0,0,1,442,25.73a9.67,9.67,0,0,1,1.65,5.88,12.6,12.6,0,0,1-1.25,5.76A12.26,12.26,0,0,1,439,41.6a15.59,15.59,0,0,1-5.19,2.62,22.05,22.05,0,0,1-6.45.91,24.54,24.54,0,0,1-3-.18c-1.07-.13-2.11-.29-3.13-.47s-2-.4-2.85-.63-1.61-.45-2.18-.66l-1.76-.62V31.62Z"/><path id="Path_28" data-name="Path 28" class="cls-1" d="M496.38,40.68v3.76H479.17V40.68l5.32-1.26V5.63l-5.32-1.26V.93L496.38.62V4.38l-5.32,1.25V39.42Z"/><path id="Path_29" data-name="Path 29" class="cls-1" d="M546.55,44.43,533.22,5.63,528.4,4.37V.93L545.93.62V4.38l-5.7,1.19L550.06,36,560.51,5.63l-5.82-1.25V.94l16.9-.32V4.39l-4.88,1.25-13.9,38.8Z"/><path id="Path_30" data-name="Path 30" class="cls-1" d="M624.26,5.63H610.81V19.08H625.2v5H610.81V39.42H625.2l1.25-6.26h4.07V44.43H598.91V40.67l5.32-1.26V5.63l-5.32-1.26V.93L610.8.62h19.09V11.26h-4.07Z"/><path class="cls-1" d="M18.31,5.91c2.2,0,7.77,1,7.77,7.46,0,1.87-.84,7.46-9.62,7.46H11.8V12.08L5.28,10.63V39.47L0,40.71v3.73H17.09V40.69l-5.28-1.24v-14h1.9c6.55,0,8,4.64,9.52,8l5,11h9.32V40.69l-4.43-1c-.33.2-6.66-14.87-8.63-15.47a11.42,11.42,0,0,0,8.08-10.86c0-10-9.25-12.44-14-12.44H0V3.28L11.8,5.91Z"/><path class="cls-1" d="M218.7,28.16a20.74,20.74,0,0,0,12.49-3.76,14.51,14.51,0,0,0,4.41-10.95,12.24,12.24,0,0,0-3.71-9.39A16.19,16.19,0,0,0,221.22.62l-18.46,0v3.8l2.87.67.19,0,2.26.53V16.87h0V39.42l-5.32,1.26v3.76H220V40.68l-5.32-1.26V28.16Zm8.22-20.09a9.26,9.26,0,0,1,2.13,6.32q0,8.76-10.33,8.76h-4.07V5.63h6.26A7.69,7.69,0,0,1,226.92,8.07Z"/><rect class="cls-2" x="133.09" y="87.95" width="364.33" height="1.98"/></svg>