<svg id="Lag_1" data-name="Lag 1" xmlns="http://www.w3.org/2000/svg" viewBox="0 0 171.56 242.39"><defs><style>.cls-1{fill:#f0f4f7;}.cls-2{fill:#c3c6c7;}</style></defs><path class="cls-1" d="M83.62,22.73c10,0,35.44,4.36,35.44,34,0,8.52-3.84,34-43.89,34H53.92V50.87L24.15,44.24V175.81L.06,181.48v17H78V181.38l-24.09-5.67V111.93h8.7c29.85,0,36.42,21.16,43.43,36.43l23,50h42.52v-17l-20.19-4.5C149.86,177.8,121,109,112,106.3c20.17-6.13,36.85-25.29,36.85-49.54C148.82,11.28,106.62,0,85,0H0V10.7l53.92,12Z"/><rect class="cls-2" y="235.07" width="171.56" height="7.32"/></svg>