<svg id="Lag_1" data-name="Lag 1" xmlns="http://www.w3.org/2000/svg" viewBox="0 0 630.5 90.92"><defs><style>.cls-1{fill:#f0f4f7;}.cls-2{fill:#c3c6c7;}</style></defs><path id="Path_23" data-name="Path 23" class="cls-1" d="M94.63,5.63H81.17V19.08H95.56v5H81.17V39.42H95.56l1.25-6.26h4.07V44.43H69.28V40.67l5.32-1.26V5.63L69.28,4.37V.93L81.17.62h19.08V11.26H96.18Z"/><path id="Path_24" data-name="Path 24" class="cls-1" d="M143.23,31.6l1.25,6.57a12.51,12.51,0,0,0,3.07,1.1,16.37,16.37,0,0,0,3.82.47,14.29,14.29,0,0,0,3.63-.47,10.41,10.41,0,0,0,3.07-1.35,7.09,7.09,0,0,0,2.09-2.1A5.07,5.07,0,0,0,161,33a4.65,4.65,0,0,0-1-3,9.2,9.2,0,0,0-2.59-2.13,22.59,22.59,0,0,0-3.6-1.58c-1.34-.46-2.69-.94-4.07-1.44s-2.87-1.26-4.22-1.91a15.38,15.38,0,0,1-3.63-2.38,10.26,10.26,0,0,1-2.54-3.41,13.12,13.12,0,0,1,.28-10.39,11.11,11.11,0,0,1,3.26-3.82A14,14,0,0,1,147.58.72,23.07,23.07,0,0,1,153.31,0a26.38,26.38,0,0,1,2.94.19c1,.13,2.06.28,3.06.47s1.94.4,2.82.63l2.25.59,2,.62-.32,10.64H162l-2.13-6.69a20.91,20.91,0,0,0-3.48-.81,23.19,23.19,0,0,0-3.53-.25,10.52,10.52,0,0,0-3.29.47,7.7,7.7,0,0,0-2.5,1.28A6.16,6.16,0,0,0,145.48,9a4.17,4.17,0,0,0-.56,2.07,5.44,5.44,0,0,0,1.75,4.13,15.35,15.35,0,0,0,4.2,2.57c1.66.71,3.47,1.37,5.41,2a28.58,28.58,0,0,1,5.38,2.35,13.05,13.05,0,0,1,4.13,3.66,9.61,9.61,0,0,1,1.66,5.88,12.73,12.73,0,0,1-1.25,5.76,12.41,12.41,0,0,1-3.45,4.23,15.59,15.59,0,0,1-5.19,2.62,22,22,0,0,1-6.45.91,24.66,24.66,0,0,1-3-.18c-1.06-.13-2.11-.29-3.13-.47s-2-.4-2.85-.63-1.6-.45-2.19-.66l-1.75-.62V31.62Z"/><path id="Path_25" data-name="Path 25" class="cls-1" d="M266.18,23a30,30,0,0,1,1.41-9.51,20.32,20.32,0,0,1,4.1-7.29A17.65,17.65,0,0,1,278.1,1.6a22.52,22.52,0,0,1,16.49-.07,16.86,16.86,0,0,1,6.17,4.41,19.48,19.48,0,0,1,3.85,7A29.77,29.77,0,0,1,305.92,22a27.45,27.45,0,0,1-1.5,9.29,21.43,21.43,0,0,1-4.23,7.27,19.45,19.45,0,0,1-6.53,4.75,20.37,20.37,0,0,1-8.46,1.72,17.62,17.62,0,0,1-14.11-5.69Q266.17,33.67,266.18,23Zm20-17.72q-12.84,0-12.84,17.21t12.21,17.22a11.65,11.65,0,0,0,9.71-4.38q3.43-4.38,3.44-13.15Q298.73,5.31,286.21,5.31Z"/><path id="Path_26" data-name="Path 26" class="cls-1" d="M368.25,44.43,347.6,9.94V39.42l5.94,1.26v3.76H336.65V40.68L342,39.42V5.63l-5.32-1.26V.93L349.79.62l20.65,35v-30l-5.32-1.26V.93L381.4.62V4.38l-5.32,1.25V44.44Z"/><path id="Path_27" data-name="Path 27" class="cls-1" d="M419.65,31.6l1.25,6.57a12.37,12.37,0,0,0,3.07,1.1,16.37,16.37,0,0,0,3.82.47,14.41,14.41,0,0,0,3.63-.47,10.53,10.53,0,0,0,3.07-1.35,7.09,7.09,0,0,0,2.09-2.1,5,5,0,0,0,.79-2.78,4.59,4.59,0,0,0-1-3,9.38,9.38,0,0,0-2.6-2.13,21,21,0,0,0-3.6-1.58c-1.33-.46-2.69-.94-4.06-1.44s-2.87-1.26-4.23-1.91a15.8,15.8,0,0,1-3.63-2.38,10.37,10.37,0,0,1-2.53-3.41A13,13,0,0,1,416,6.76a11.19,11.19,0,0,1,3.25-3.82A14,14,0,0,1,424,.72,23,23,0,0,1,429.73,0a26.4,26.4,0,0,1,2.95.19c1,.13,2.06.28,3.06.47s1.94.4,2.82.63l2.25.59,2,.62-.32,10.64h-4.06l-2.13-6.69a20.91,20.91,0,0,0-3.48-.81,23.19,23.19,0,0,0-3.53-.25,10.48,10.48,0,0,0-3.29.47,7.7,7.7,0,0,0-2.5,1.28A6.16,6.16,0,0,0,421.91,9a4.17,4.17,0,0,0-.56,2.07,5.44,5.44,0,0,0,1.75,4.13,15.45,15.45,0,0,0,4.19,2.57c1.67.71,3.48,1.37,5.42,2a28.58,28.58,0,0,1,5.38,2.35,13.05,13.05,0,0,1,4.13,3.66,9.67,9.67,0,0,1,1.66,5.88,12.73,12.73,0,0,1-1.25,5.76,12.49,12.49,0,0,1-3.44,4.23,15.74,15.74,0,0,1-5.2,2.62,21.94,21.94,0,0,1-6.44.91,24.7,24.7,0,0,1-3-.18c-1.06-.13-2.11-.29-3.13-.47s-2-.4-2.85-.63-1.6-.45-2.18-.66l-1.75-.62V31.62Z"/><path id="Path_28" data-name="Path 28" class="cls-1" d="M496.61,40.68v3.76H479.39V40.68l5.32-1.26V5.63l-5.32-1.26V.93L496.61.62V4.38l-5.32,1.25V39.42Z"/><path id="Path_29" data-name="Path 29" class="cls-1" d="M546.78,44.43,533.45,5.63l-4.82-1.26V.93L546.15.62V4.38l-5.69,1.19L550.28,36,560.74,5.63l-5.83-1.25V.94l16.9-.32V4.39l-4.88,1.25L553,44.44Z"/><path id="Path_30" data-name="Path 30" class="cls-1" d="M624.49,5.63H611V19.08h14.4v5H611V39.42h14.4l1.25-6.26h4.07V44.43H599.14V40.67l5.32-1.26V5.63l-5.32-1.26V.93L611,.62h19.09V11.26h-4.07Z"/><path class="cls-1" d="M18.54,5.91c2.2,0,7.77,1,7.77,7.46,0,1.87-.84,7.46-9.62,7.46H12V12.08L5.51,10.63V39.47L.23,40.71v3.73H17.31V40.69L12,39.45v-14h1.91c6.54,0,8,4.64,9.52,8,1.27,2.78,5,11,5,11h9.32V40.69l-4.43-1c-.33.2-6.67-14.87-8.64-15.47a11.42,11.42,0,0,0,8.08-10.86c0-10-9.25-12.44-14-12.44H.21V3.28L12,5.91Z"/><path class="cls-1" d="M218.93,28.16a20.69,20.69,0,0,0,12.48-3.76,14.48,14.48,0,0,0,4.42-10.95,12.25,12.25,0,0,0-3.72-9.39A16.15,16.15,0,0,0,221.44.62L203,.58v3.8l2.88.67.19,0,2.25.53V16.87h0V39.42L203,40.68v3.76H220.2V40.68l-5.32-1.26V28.16Zm8.21-20.09a9.26,9.26,0,0,1,2.13,6.32q0,8.76-10.33,8.76h-4.06V5.63h6.25A7.68,7.68,0,0,1,227.14,8.07Z"/><rect class="cls-2" x="266.17" y="88.94" width="364.33" height="1.98"/></svg>